<svg width="212" height="28" viewBox="0 0 212 28" fill="none" xmlns="http://www.w3.org/2000/svg">
<path d="M15.8886 2.87838C15.8886 0.575676 13.7011 0 11.9741 0V0.345405C13.0103 0.345405 13.8162 0.690811 13.8162 1.49676C13.8162 1.9573 13.4708 2.64811 12.4346 2.64811C11.6286 2.64811 9.90162 2.18757 8.63513 1.72703C7.13838 1.15135 5.75676 0.690811 4.60541 0.690811C2.3027 0.690811 0.690811 2.41784 0.690811 4.37514C0.690811 6.10216 1.9573 6.67784 2.41784 6.90811L2.53297 6.67784C2.3027 6.44757 1.9573 6.2173 1.9573 5.52649C1.9573 5.06595 2.41784 4.26 3.56919 4.26C4.60541 4.26 5.98703 4.72054 7.82919 5.29622C9.44108 5.75676 11.1681 6.10216 12.0892 6.2173V9.78649L10.3622 11.2832V11.3984L12.0892 12.8951V17.8459C11.1681 18.4216 10.1319 18.5368 9.21081 18.5368C7.48378 18.5368 5.98703 18.0762 4.72054 16.6946L9.44108 14.3919V6.44757L3.68432 8.98054C4.14487 7.48378 5.41135 6.44757 6.67784 5.75676L6.5627 5.41135C3.10865 6.33243 0 9.55622 0 13.4708C0 18.0762 3.79946 21.5303 8.05946 21.5303C12.6649 21.5303 15.6584 17.8459 15.6584 14.0465H15.4281C14.7373 15.5432 13.7011 16.9249 12.4346 17.6157V12.8951L14.2768 11.3984V11.2832L12.4346 9.78649V6.2173C14.1616 6.2173 15.8886 5.06595 15.8886 2.87838ZM5.87189 15.5432L4.49027 16.2341C3.68432 15.1978 3.22378 13.8162 3.22378 11.8589C3.22378 11.053 3.22378 10.1319 3.45405 9.44108L5.87189 8.40487V15.5432ZM18.0762 18.1914L16.5795 19.3427L16.8097 19.573L17.5005 18.9973L20.0335 21.3L23.4876 18.9973L23.3724 18.767L22.4514 19.3427L21.3 18.1914V10.3622L22.2211 9.67135L24.1784 11.2832V18.3065C24.1784 22.6816 23.2573 23.3724 21.3 24.0632V24.4087C24.5238 24.5238 27.5173 23.4876 27.5173 17.8459V10.247L28.5535 9.44108L28.3232 9.21081L27.4022 9.90162L24.5238 7.48378L21.3 9.90162V0.460541H21.0697L17.04 3.22378V3.45405C17.5005 3.68432 18.1914 3.91459 18.1914 5.18108L18.0762 18.1914ZM39.1459 16.9249L36.2676 19.1124L33.3892 16.8097V15.4281L38.8005 11.7438V11.6286L36.0373 7.48378L30.0503 10.7076V18.3065L28.8989 19.2276L29.1292 19.4578L30.1654 18.6519L34.08 21.5303L39.2611 17.3854L39.1459 16.9249ZM33.3892 14.9676V9.32595L33.6195 9.21081L36.1524 13.2405L33.3892 14.9676ZM61.1368 1.84216C61.1368 1.49676 61.0216 1.15135 60.9065 0.805946H60.6762C60.3308 1.72703 59.8703 2.18757 58.7189 2.18757C57.6827 2.18757 56.9919 1.61189 56.5313 1.15135L53.1924 4.95081L53.4227 5.18108L54.5741 4.14487C55.2649 4.72054 55.8405 5.18108 57.4524 5.29622V14.8524L50.6595 3.22378C50.0838 2.3027 49.2778 1.03622 47.6659 1.03622C45.8238 1.03622 44.2119 2.64811 44.4422 5.18108H44.7876C44.9027 4.49027 45.2481 3.68432 46.0541 3.68432C46.6297 3.68432 47.2054 4.26 47.5508 4.83568V8.63514C45.4784 8.63514 44.0968 9.55622 44.0968 11.2832C44.0968 12.2043 44.5573 13.5859 45.9389 13.9314V13.7011C45.7086 13.4708 45.5935 13.2405 45.5935 12.8951C45.5935 12.3195 46.0541 11.8589 46.86 11.8589H47.4357V16.6946C45.0178 16.6946 43.0605 18.0762 43.0605 20.3789C43.0605 22.5665 44.9027 23.6027 46.9751 23.4876V23.2573C45.7086 23.1422 45.133 22.5665 45.133 21.7605C45.133 20.7243 45.8238 20.2638 46.7449 20.2638C47.6659 20.2638 48.4719 20.8395 49.0476 21.5303L52.3865 17.8459L52.1562 17.6157L51.3503 18.5368C50.0838 17.3854 49.393 17.04 47.8962 16.8097V5.29622L57.107 21.4151H57.7978V5.29622C59.5249 5.18108 61.1368 3.79946 61.1368 1.84216ZM69.5416 16.9249L66.6632 19.1124L63.7849 16.8097V15.4281L69.1962 11.7438V11.6286L66.433 7.48378L60.4459 10.7076V18.3065L59.2946 19.2276L59.5249 19.4578L60.5611 18.6519L64.4757 21.5303L69.6568 17.3854L69.5416 16.9249ZM63.7849 14.9676V9.32595L64.0151 9.21081L66.5481 13.2405L63.7849 14.9676ZM88.3086 8.75027L87.5027 9.32595L85.3151 7.48378L82.7822 9.78649L83.8184 10.8227V19.4578L81.0551 17.7308V10.5924L81.9762 10.0168L79.3281 7.48378L76.7951 9.78649L77.8313 10.8227V19.1124L77.4859 19.3427L75.0681 17.6157V10.7076C75.0681 9.09568 74.2622 8.63514 73.3411 8.05946C72.5351 7.48378 72.0746 7.13838 72.0746 6.33243C72.0746 5.64162 72.7654 5.29622 73.1108 5.06595V4.83568C72.1897 4.83568 69.7719 5.75676 69.7719 7.94432C69.7719 9.09568 70.3476 9.55622 70.9232 10.1319C71.4989 10.7076 72.0746 11.1681 72.0746 12.2043V18.8822L70.8081 19.8032L71.0384 20.0335L72.1897 19.1124L74.8378 21.4151L77.7162 19.4578L80.94 21.4151L87.0422 17.8459V10.1319L88.5389 8.98054L88.3086 8.75027ZM109.724 2.41784L108.572 3.45405L106.039 1.15135L102.24 3.91459V1.38162H101.895L102.01 20.0335C101.664 20.0335 100.628 19.8032 99.8222 19.573L99.5919 4.02973C99.5919 2.87838 98.7859 1.26649 96.7135 1.26649C94.6411 1.26649 93.2595 2.87838 93.2595 4.49027H93.6049C93.72 3.79946 94.0654 3.22378 94.7562 3.22378C95.447 3.22378 96.0227 3.68432 96.0227 5.18108V9.67135C93.9503 9.78649 92.6838 10.9378 92.6838 12.4346C92.6838 13.3557 93.1443 14.7373 94.5259 14.7373V14.507C94.0654 14.2768 93.9503 13.9314 93.9503 13.7011C93.9503 13.0103 94.5259 12.78 95.447 12.78H95.9076V19.9184C94.1805 20.4941 93.4897 21.7605 93.4897 23.1422C93.4897 25.0995 94.9865 26.4811 97.2892 26.4811C98.9011 26.4811 100.283 26.2508 101.664 25.9054C102.816 25.6751 104.312 25.3297 105.003 25.3297C105.924 25.3297 106.27 25.7903 106.27 26.3659C106.27 27.1719 105.924 27.5173 105.464 27.6324V27.8627C107.306 27.5173 108.457 26.3659 108.457 24.6389C108.457 22.9119 106.73 21.8757 104.888 21.8757C103.967 21.8757 102.01 22.2211 100.628 22.4514C99.0162 22.7968 97.4043 23.027 96.9438 23.027C96.1378 23.027 95.2168 22.6816 95.2168 21.5303C95.2168 20.6092 96.0227 19.8032 97.98 19.8032C99.0162 19.8032 100.283 19.9184 101.549 20.2638C102.931 20.6092 104.197 20.9546 105.349 20.9546C107.076 20.9546 108.572 20.3789 108.572 17.9611V3.79946L109.954 2.64811L109.724 2.41784ZM105.003 9.44108C104.658 9.78649 104.197 10.1319 103.622 10.1319C103.046 10.1319 102.47 9.78649 102.24 9.44108V4.37514L103.391 3.56919L105.003 5.06595V9.44108ZM105.003 12.8951C104.773 12.6649 104.197 12.3195 103.622 12.3195C103.046 12.3195 102.47 12.6649 102.24 12.8951V9.90162C102.47 10.1319 103.046 10.4773 103.622 10.4773C104.197 10.4773 104.773 10.1319 105.003 9.90162V12.8951ZM105.003 18.3065C105.003 19.2276 104.428 20.1487 103.161 20.1487H102.24V13.3557C102.47 13.1254 103.046 12.78 103.622 12.78C104.197 12.78 104.658 13.1254 105.003 13.3557V18.3065ZM120.777 10.1319L117.092 7.48378L111.451 10.7076V18.1914L110.299 19.1124L110.415 19.3427L111.336 18.6519L115.02 21.4151L120.777 17.9611V10.1319ZM114.559 17.3854V9.09568L117.438 11.1681V19.3427L114.559 17.3854ZM131.715 7.71405H131.484C131.139 7.94432 130.794 8.17459 130.448 8.17459C129.988 8.17459 129.412 7.94432 129.182 7.59892H128.951L126.994 9.78649L125.037 7.59892L121.583 9.90162L121.698 10.1319L122.619 9.55622L123.77 10.8227V18.0762L122.274 19.2276L122.504 19.4578L123.195 18.8822L125.958 21.1849L129.527 18.767L129.412 18.5368L128.376 19.1124L126.994 17.9611V9.90162C127.57 10.4773 128.261 11.053 129.066 11.053C130.678 11.1681 131.599 9.55622 131.715 7.71405ZM145.531 18.767L141.616 21.4151L136.32 13.3557L140.119 7.48378H140.35C140.81 7.94432 141.501 8.40487 142.307 8.40487C143.113 8.40487 143.689 7.94432 144.034 7.48378H144.264C144.149 9.78649 142.537 11.1681 141.386 11.1681C140.235 11.1681 139.659 10.5924 138.968 10.247L138.623 10.8227L144.379 19.3427L145.531 18.6519V18.767ZM132.866 18.1914L131.369 19.3427L131.599 19.573L132.29 18.9973L134.823 21.3L138.277 18.9973L138.047 18.767L137.126 19.3427L135.975 18.1914V0.460541H135.859L131.715 3.22378V3.45405C132.175 3.68432 132.866 3.79946 132.866 5.18108V18.1914ZM164.643 2.87838C164.643 0.575676 162.456 0 160.729 0V0.345405C161.765 0.345405 162.571 0.690811 162.571 1.49676C162.571 1.9573 162.225 2.64811 161.189 2.64811C160.383 2.64811 158.656 2.18757 157.39 1.72703C155.893 1.26649 154.511 0.805946 153.36 0.805946C151.057 0.805946 149.445 2.53297 149.445 4.49027C149.445 6.2173 150.712 6.79297 151.172 7.02324L151.288 6.79297C150.942 6.5627 150.597 6.33243 150.597 5.64162C150.597 5.18108 151.057 4.37514 152.209 4.37514C153.245 4.37514 154.626 4.83568 156.469 5.41135C158.081 5.87189 159.808 6.2173 160.729 6.33243V9.90162L159.002 11.3984V11.5135L160.729 13.0103V17.9611C159.808 18.5368 158.771 18.6519 157.85 18.6519C156.123 18.6519 154.626 18.1914 153.36 16.8097L158.081 14.507V6.44757L152.324 8.98054C152.899 7.48378 154.166 6.44757 155.317 5.64162L155.202 5.41135C151.748 6.33243 148.639 9.44108 148.639 13.3557C148.639 17.9611 152.439 21.4151 156.699 21.4151C161.304 21.4151 164.298 17.7308 164.298 13.9314H164.068C163.377 15.4281 162.341 16.8097 161.074 17.5005V12.78L162.916 11.2832V11.1681L161.189 9.67135V6.2173C162.916 6.2173 164.643 5.06595 164.643 2.87838ZM154.626 15.5432L153.245 16.2341C152.439 15.1978 151.978 13.8162 151.978 11.8589C151.978 11.053 152.094 10.1319 152.324 9.44108L154.742 8.40487L154.626 15.5432ZM168.673 1.72703H168.558L166.255 3.68432V3.79946L168.212 5.98703H168.443L170.745 4.02973V3.91459L168.673 1.72703ZM172.127 18.767L171.206 19.3427L170.055 18.1914V10.247L171.206 9.44108L170.976 9.21081L170.17 9.90162L168.097 7.48378L164.758 9.78649L164.989 10.1319L165.795 9.55622L166.831 10.8227V18.3065L165.334 19.4578L165.449 19.6881L166.255 19.1124L168.788 21.4151L172.242 19.1124L172.127 18.767ZM191.355 18.6519L190.549 19.2276L189.282 18.0762V10.247L190.434 9.32595L190.203 9.09568L189.282 9.90162L186.634 7.48378L183.18 9.90162L180.532 7.48378L177.308 9.90162L175.236 7.48378L171.897 9.78649L172.012 10.1319L172.818 9.55622L173.969 10.8227V18.3065L173.048 19.2276L175.696 21.4151L178.229 19.1124L177.193 18.0762V10.247L178.229 9.55622L179.956 11.1681V18.0762L179.035 18.9973L181.683 21.1849L184.216 18.8822L183.18 17.8459V10.247L184.101 9.67135L185.943 11.2832V18.1914L185.137 18.9973L187.785 21.4151L191.355 18.9973V18.6519ZM201.371 16.9249L198.493 19.1124L195.615 16.8097V15.4281L201.026 11.7438V11.6286L198.263 7.48378L192.276 10.7076V18.5368L196.305 21.4151L201.486 17.2703L201.371 16.9249ZM195.615 14.9676V9.32595L195.845 9.21081L198.378 13.2405L195.615 14.9676ZM211.849 13.9314L209.661 12.2043C211.158 10.9378 211.734 9.21081 211.734 8.05946V7.36865H211.503C211.273 7.94432 210.812 8.52 209.891 8.52C208.97 8.52 208.395 8.05946 207.819 7.36865L202.638 10.247V14.3919L204.595 15.8886C202.638 17.6157 202.292 18.767 202.292 19.6881C202.292 20.8395 202.868 21.6454 203.789 21.9908L203.904 21.7605C203.674 21.5303 203.444 21.4151 203.444 20.8395C203.444 20.4941 203.904 19.9184 204.825 19.9184C205.977 19.9184 206.668 20.7243 207.013 21.0697L211.964 18.0762V13.9314H211.849ZM210.582 10.4773C209.776 11.8589 208.049 13.2405 207.013 13.9314L205.746 12.8951V8.86541C206.207 10.0168 207.474 10.9378 208.74 10.9378C209.546 10.9378 210.006 10.8227 210.582 10.4773ZM208.625 19.6881C208.049 18.4216 206.668 17.5005 205.286 17.5005C204.941 17.5005 204.019 17.5005 203.098 18.0762C203.674 17.1551 205.171 15.5432 207.128 14.3919L208.51 15.5432L208.625 19.6881Z" fill="black"/>
</svg>
