<svg width="61" height="25" viewBox="0 0 61 25" fill="none" xmlns="http://www.w3.org/2000/svg">
<path d="M0.144786 23.0782C0.0879414 23.1127 0.0442042 23.1645 0.020268 23.2257C-0.00366822 23.2869 -0.00648466 23.354 0.0122521 23.4169C0.0309888 23.4798 0.0702462 23.5349 0.124013 23.5739C0.177779 23.6128 0.243093 23.6334 0.309956 23.6325H1.54567C1.69501 23.6339 1.84195 23.5956 1.97083 23.5217C23.504 12.5612 40.8835 34.7578 60.817 19.3448C60.868 19.3061 60.9052 19.2526 60.9232 19.192C60.9413 19.1313 60.9393 19.0666 60.9176 19.0071C60.8959 18.9476 60.8555 18.8964 60.8023 18.8607C60.7491 18.825 60.6857 18.8068 60.6212 18.8085H59.2938C59.1146 18.8059 58.9389 18.856 58.7891 18.9523C41.85 29.6521 23.9628 7.64725 0.13867 23.0782H0.144786Z" fill="#111111"/>
<path d="M25.6163 2.1068C25.6163 2.4031 25.5266 2.69276 25.3586 2.93913C25.1905 3.1855 24.9517 3.37752 24.6722 3.49091C24.3928 3.6043 24.0853 3.63397 23.7886 3.57616C23.4919 3.51836 23.2194 3.37567 23.0056 3.16615C22.7917 2.95663 22.646 2.68969 22.587 2.39907C22.528 2.10846 22.5583 1.80723 22.674 1.53348C22.7898 1.25973 22.9858 1.02575 23.2373 0.861127C23.4888 0.696508 23.7845 0.608643 24.087 0.608643C24.4926 0.608643 24.8816 0.766487 25.1684 1.04744C25.4552 1.3284 25.6163 1.70946 25.6163 2.1068Z" fill="#111111"/>
<path d="M44.743 12.241L42.1645 12.9212C41.8459 13.0083 41.5165 13.0516 41.1857 13.05C40.4379 13.0482 39.7074 12.8294 39.0865 12.4212C38.4656 12.013 37.982 11.4337 37.697 10.7564C37.4119 10.0792 37.3381 9.33441 37.4849 8.6161C37.6317 7.8978 37.9925 7.23821 38.5217 6.72064C39.0509 6.20306 39.7248 5.85072 40.4583 5.70809C41.1917 5.56547 41.9519 5.63896 42.6428 5.9193C43.3337 6.19963 43.9243 6.67423 44.34 7.28316C44.7557 7.89209 44.9779 8.60804 44.9785 9.34059V11.9534C44.9858 12.0224 44.9663 12.0917 44.9237 12.1472C44.8812 12.2028 44.8188 12.2405 44.7491 12.253L44.743 12.241ZM47.5233 9.34059C47.5233 8.04489 47.109 6.78173 46.3387 5.72846C45.5683 4.6752 44.4806 3.88471 43.2282 3.46798C41.9758 3.05125 40.6216 3.0292 39.3558 3.40494C38.0899 3.78068 36.976 4.53533 36.1704 5.56294C35.3647 6.59056 34.9078 7.83953 34.8639 9.13452C34.8199 10.4295 35.191 11.7055 35.9251 12.7833C36.6592 13.8611 37.7195 14.6866 38.9571 15.1439C40.1946 15.6013 41.5473 15.6675 42.8252 15.3332L44.6604 14.8478C44.6963 14.8404 44.7334 14.8407 44.7692 14.8487C44.805 14.8567 44.8385 14.8722 44.8676 14.8941C44.8967 14.916 44.9206 14.9439 44.9376 14.9757C44.9546 15.0075 44.9644 15.0426 44.9663 15.0785C44.9663 15.158 44.9985 15.2342 45.0559 15.2904C45.1132 15.3466 45.191 15.3781 45.2721 15.3781H47.2175C47.2986 15.3781 47.3764 15.3466 47.4338 15.2904C47.4911 15.2342 47.5233 15.158 47.5233 15.0785V9.34059Z" fill="#111111"/>
<path d="M33.9331 13.0409C32.9799 12.9673 32.0908 12.5417 31.4457 11.8502C30.8006 11.1588 30.4477 10.2531 30.4584 9.31648V6.19134C30.4584 6.11187 30.4907 6.03566 30.548 5.97947C30.6054 5.92328 30.6832 5.89171 30.7643 5.89171H33.3C33.3811 5.89171 33.4589 5.86014 33.5162 5.80395C33.5736 5.74776 33.6058 5.67154 33.6058 5.59208V3.69542C33.6058 3.61595 33.5736 3.53974 33.5162 3.48354C33.4589 3.42735 33.3811 3.39578 33.3 3.39578H30.7643C30.6832 3.39578 30.6054 3.36422 30.548 3.30803C30.4907 3.25183 30.4584 3.17562 30.4584 3.09615V0.926828C30.4584 0.847361 30.4262 0.771153 30.3689 0.714961C30.3115 0.65877 30.2337 0.627197 30.1526 0.627197H28.1858C28.1047 0.627197 28.0269 0.65877 27.9696 0.714961C27.9122 0.771153 27.88 0.847361 27.88 0.926828V9.33446C27.8716 10.9326 28.4927 12.4723 29.6139 13.6331C30.7351 14.794 32.2701 15.4866 33.8995 15.5668C33.9419 15.5735 33.9853 15.5705 34.0263 15.5581C34.0674 15.5457 34.1049 15.5241 34.136 15.4951C34.1671 15.4661 34.1909 15.4304 34.2056 15.3908C34.2203 15.3513 34.2254 15.309 34.2206 15.2671V13.3615C34.2208 13.285 34.1911 13.2114 34.1376 13.1557C34.0842 13.1 34.011 13.0665 33.9331 13.0619V13.0409Z" fill="#111111"/>
<path d="M25.3544 15.0663C25.3507 15.1446 25.3173 15.2187 25.2607 15.2741C25.2041 15.3295 25.1285 15.3623 25.0486 15.3659H23.1032C23.0221 15.3659 22.9443 15.3343 22.8869 15.2781C22.8296 15.2219 22.7974 15.1457 22.7974 15.0663V5.93952C22.7974 5.86006 22.8296 5.78384 22.8869 5.72765C22.9443 5.67146 23.0221 5.63989 23.1032 5.63989H25.0486C25.1297 5.63989 25.2075 5.67146 25.2648 5.72765C25.3222 5.78384 25.3544 5.86006 25.3544 5.93952V15.0663Z" fill="#111111"/>
<path d="M6.33072 13.0489C5.32965 13.0457 4.37073 12.6537 3.6643 11.9589C2.95786 11.2641 2.56159 10.3231 2.56241 9.34248V6.49C2.56123 6.41905 2.58579 6.34999 2.63172 6.29512C2.67765 6.24025 2.74197 6.20313 2.81322 6.19037L5.68839 5.69598C5.9005 5.66008 6.11548 5.64303 6.33072 5.64504C6.83644 5.63095 7.3399 5.71636 7.81134 5.89621C8.28277 6.07606 8.7126 6.34671 9.07539 6.69214C9.43818 7.03756 9.72657 7.45076 9.9235 7.90728C10.1204 8.3638 10.2219 8.85437 10.2219 9.34997C10.2219 9.84558 10.1204 10.3361 9.9235 10.7927C9.72657 11.2492 9.43818 11.6624 9.07539 12.0078C8.7126 12.3532 8.28277 12.6239 7.81134 12.8037C7.3399 12.9836 6.83644 13.069 6.33072 13.0549V13.0489ZM6.33072 3.13114C5.9666 3.13188 5.60326 3.16397 5.24488 3.22702L2.92639 3.62553C2.88166 3.63402 2.83555 3.63261 2.79144 3.6214C2.74733 3.6102 2.70634 3.58948 2.67145 3.56076C2.63656 3.53204 2.60867 3.49605 2.5898 3.45542C2.57094 3.41478 2.56158 3.37053 2.56241 3.3259V0.299631C2.56241 0.220164 2.53018 0.143951 2.47282 0.0877595C2.41546 0.0315679 2.33766 0 2.25654 0H0.323447C0.242326 0 0.164527 0.0315679 0.107165 0.0877595C0.0498033 0.143951 0.0175781 0.220164 0.0175781 0.299631V9.33948C0.0181856 10.5672 0.390526 11.7671 1.08749 12.7874C1.78445 13.8077 2.7747 14.6026 3.93295 15.0715C5.09121 15.5403 6.36541 15.6621 7.59432 15.4213C8.82323 15.1806 9.95163 14.5882 10.8367 13.719C11.7218 12.8499 12.3239 11.7431 12.5667 10.5386C12.8095 9.3342 12.6821 8.08629 12.2007 6.9528C11.7193 5.81931 10.9054 4.85117 9.86219 4.17089C8.81894 3.49062 7.59314 3.12877 6.33989 3.13114H6.33072Z" fill="#111111"/>
<path d="M14.2788 9.34115C14.2828 7.74903 14.9093 6.21891 16.0295 5.06532C17.1496 3.91172 18.6783 3.22231 20.3014 3.1388C20.3428 3.13677 20.3842 3.14302 20.4231 3.15716C20.462 3.17131 20.4976 3.19306 20.5276 3.22108C20.5577 3.24911 20.5816 3.28284 20.5979 3.3202C20.6142 3.35757 20.6226 3.39779 20.6225 3.43843V5.34408C20.6227 5.42005 20.5935 5.49325 20.5406 5.54887C20.4878 5.6045 20.4154 5.6384 20.3381 5.64371C19.3855 5.71336 18.4951 6.13368 17.846 6.82016C17.1969 7.50665 16.8371 8.4084 16.8389 9.34415V15.0671C16.8389 15.1466 16.8067 15.2228 16.7493 15.279C16.692 15.3352 16.6142 15.3667 16.5331 15.3667H14.5877C14.5066 15.3667 14.4288 15.3352 14.3715 15.279C14.3141 15.2228 14.2819 15.1466 14.2819 15.0671V9.34115H14.2788Z" fill="#111111"/>
<path d="M56.5695 9.27375C56.5305 9.22216 56.5095 9.15967 56.5095 9.09547C56.5095 9.03128 56.5305 8.96879 56.5695 8.91719L60.4785 3.72759C60.5057 3.69484 60.5227 3.65509 60.5273 3.61311C60.532 3.57114 60.5241 3.52874 60.5047 3.49105C60.4853 3.45335 60.4552 3.42196 60.418 3.40066C60.3808 3.37937 60.3381 3.36907 60.295 3.37103H57.6829C57.6336 3.36768 57.5843 3.37698 57.5397 3.39799C57.4952 3.41901 57.4571 3.45102 57.429 3.49088L55.0157 6.69693C54.9933 6.72725 54.9639 6.75194 54.9299 6.76897C54.8958 6.78599 54.8582 6.79487 54.82 6.79487C54.7818 6.79487 54.7441 6.78599 54.7101 6.76897C54.676 6.75194 54.6466 6.72725 54.6242 6.69693L52.2109 3.49388C52.1838 3.45599 52.1475 3.42524 52.1054 3.40433C52.0632 3.38343 52.0165 3.37302 51.9693 3.37403H49.3449C49.3021 3.37268 49.2598 3.38341 49.2231 3.40494C49.1863 3.42648 49.1567 3.4579 49.1377 3.49548C49.1187 3.53306 49.1111 3.5752 49.1158 3.61688C49.1206 3.65857 49.1374 3.69803 49.1644 3.73058L53.0704 8.92019C53.1094 8.97178 53.1304 9.03428 53.1304 9.09847C53.1304 9.16266 53.1094 9.22516 53.0704 9.27675L48.7546 15.0117C48.7299 15.0451 48.715 15.0845 48.7117 15.1256C48.7083 15.1667 48.7166 15.2079 48.7355 15.2447C48.7544 15.2815 48.7834 15.3125 48.8191 15.3343C48.8548 15.3561 48.896 15.3678 48.9381 15.3682H51.5594C51.6069 15.3682 51.6537 15.3574 51.6962 15.3366C51.7387 15.3158 51.7756 15.2856 51.8041 15.2484L54.6242 11.506C54.6466 11.4757 54.676 11.451 54.7101 11.434C54.7441 11.4169 54.7818 11.4081 54.82 11.4081C54.8582 11.4081 54.8958 11.4169 54.9299 11.434C54.9639 11.451 54.9933 11.4757 55.0157 11.506L57.8267 15.2454C57.8535 15.2857 57.891 15.3181 57.9352 15.3392C57.9794 15.3603 58.0285 15.3693 58.0775 15.3652H60.6926C60.736 15.3663 60.7788 15.3551 60.8159 15.3331C60.853 15.311 60.8828 15.279 60.9018 15.2408C60.9208 15.2026 60.9282 15.1598 60.9231 15.1176C60.918 15.0754 60.9007 15.0355 60.8731 15.0027L56.5573 9.26776L56.5695 9.27375Z" fill="#111111"/>
</svg>
