<svg width="195" height="23" viewBox="0 0 195 23" fill="none" xmlns="http://www.w3.org/2000/svg">
<path fill-rule="evenodd" clip-rule="evenodd" d="M59.7392 10.6279H66.3264C67.0216 6.38788 64.1115 4 57.8964 4C51.2685 4 47.3235 6.67555 46.2301 11.8224C45.1367 16.9692 47.9436 19.6457 54.5715 19.6457C60.5 19.6457 64.3137 17.484 65.7771 13.4066H59.1294C58.4384 15.0128 57.1564 15.8164 55.3855 15.8164C52.9153 15.8164 51.8751 14.4156 52.4254 11.8224C52.9768 9.22811 54.6174 7.80747 57.0865 7.80747C59.021 7.80851 59.9434 8.7966 59.7392 10.6279ZM73.1325 10.8145L73.6964 8.15872H76.9077C78.5951 8.15872 79.405 8.3234 79.1642 9.45636C78.936 10.5268 78.0719 10.8155 76.4876 10.8155H73.1325V10.8145V10.8145ZM79.973 4.3919H68.6517L65.4915 19.2538H71.3377L72.2997 14.7241H75.7372C77.1578 14.7241 77.6143 15.0941 77.5018 16.2083C77.3788 17.4622 76.9452 18.5347 77.2454 19.2538H83.6481L83.6961 19.0277C83.0707 18.6775 83.3281 17.4622 83.6804 15.3223C83.9577 13.6349 83.9473 12.8104 82.5016 12.1528C84.1734 11.5555 85.3804 10.1349 85.7525 8.38489C86.0579 6.94446 85.7025 5.81149 84.7311 5.15277C83.9056 4.57639 82.3192 4.3919 79.973 4.3919ZM84.532 19.2528H100.773L101.588 15.4235H91.1088L91.5247 13.4692H99.6149L100.392 9.80449H92.3043L92.6806 8.03469H102.665L103.438 4.3919H87.6911L84.532 19.2528V19.2528Z" fill="black"/>
<path fill-rule="evenodd" clip-rule="evenodd" d="M102.092 14.723C101.465 17.8739 104.04 19.7062 109.679 19.7062C116.513 19.7062 120.121 18.1407 120.912 14.4156C121.431 11.9662 120.108 10.5456 116.934 10.0724L111.843 9.33129C110.406 9.12596 109.726 8.94043 109.865 8.28171C109.987 7.70532 110.795 7.29362 112.155 7.29362C113.944 7.29362 114.807 7.78767 114.754 8.71426H121.443C121.901 5.39979 119.153 4 113.101 4C107.295 4 104.244 5.37894 103.523 8.77575C102.992 11.2668 104.484 12.7698 107.955 13.2013L112.143 13.737C113.487 13.9017 114.089 14.2728 113.952 14.9096C113.8 15.6298 112.943 15.98 111.398 15.98C109.814 15.98 109.008 15.5079 109.074 14.7241H102.092V14.723V14.723Z" fill="black"/>
<path fill-rule="evenodd" clip-rule="evenodd" d="M124.014 18.8609H129.777L132.135 7.76578H137.528L138.329 4H121.799L121 7.76578H126.372L124.014 18.8609V18.8609ZM143.333 10.4226L143.897 7.76682H147.109C148.795 7.76682 149.606 7.9315 149.365 9.06446C149.136 10.1349 148.273 10.4236 146.688 10.4236H143.333V10.4226V10.4226ZM150.174 4H138.853L135.694 18.8619H141.54L142.501 14.3322H145.94C147.36 14.3322 147.817 14.7022 147.704 15.8164C147.58 17.0703 147.147 18.1428 147.446 18.8619H153.851L153.898 18.6358C153.272 18.2856 153.531 17.0703 153.883 14.9304C154.158 13.243 154.148 12.4185 152.702 11.7609C154.374 11.1636 155.581 9.74299 155.953 7.99299C156.258 6.55256 155.902 5.4196 154.932 4.76087C154.106 4.18449 152.521 4 150.174 4V4Z" fill="black"/>
<path fill-rule="evenodd" clip-rule="evenodd" d="M154.231 11.8224C153.135 16.9692 155.943 19.6457 162.571 19.6457C169.199 19.6457 173.145 16.9692 174.237 11.8224C175.331 6.67555 172.525 4 165.897 4C159.267 4 155.324 6.67555 154.231 11.8224ZM160.212 11.8224C160.766 9.22811 162.405 7.80747 164.875 7.80747C167.346 7.80747 168.382 9.22811 167.831 11.8224C167.279 14.4156 165.644 15.8164 163.173 15.8164C160.702 15.8164 159.662 14.4166 160.212 11.8224V11.8224ZM173.214 19.2528H178.647L180.497 10.5456L184.884 19.2528H191.349L194.508 4.3919H188.93L187.108 12.9543L183.188 4.3919H176.373L173.214 19.2528Z" fill="black"/>
<path fill-rule="evenodd" clip-rule="evenodd" d="M40.6827 21.4675V20.1751H41.1715V20H40V20.1751H40.4868V21.4675H40.6827ZM42.6964 21.4675H42.8882V20H42.564L42.1492 21.1945L41.7135 20H41.38V21.4675H41.5749V20.1709L42.0596 21.4675H42.2294L42.6964 20.1563V21.4675V21.4675Z" fill="black"/>
<path fill-rule="evenodd" clip-rule="evenodd" d="M2.2055 16.1585C2.52131 16.4295 2.87361 16.7036 3.2655 16.9788C3.47292 17.1257 3.67304 17.2352 3.85127 17.3227C4.02429 17.4061 4.17542 17.4676 4.28903 17.5197C4.42244 17.5812 4.54752 17.4978 4.54022 17.3509C4.51625 16.8704 4.51833 16.4149 4.54439 15.9886V15.9865C4.70698 13.3485 5.80555 11.5808 7.63789 10.0444C9.63595 8.36741 12.4512 6.90926 17.4406 6.37874C23.859 5.69812 29.0183 9.12933 26.225 11.6131C26.0499 11.7694 26.2573 12.0279 26.447 11.8883C29.0589 9.97671 27.8947 8.51229 26.6169 7.3762C23.3149 4.44009 14.2491 4.54745 7.67437 6.46942C1.70416 8.2142 -2.63591 11.6537 1.85425 15.8437C1.9689 15.9521 2.08668 16.0564 2.2055 16.1585V16.1585ZM6.86764 15.9896C6.29438 11.784 10.7251 7.11459 17.8335 7.09687C20.3194 7.09166 23.121 7.27093 24.9596 9.34612C25.116 9.52122 24.8814 9.75261 24.7074 9.59522C21.6108 6.78106 13.1693 7.83272 11.264 10.797C10.0216 12.7325 10.3895 14.3512 11.5121 15.8114C11.7841 16.1679 12.1353 16.5462 12.4751 16.8745C14.3992 18.7309 17.3718 20.3193 23.2544 21.9765C23.4556 22.0339 23.4431 22.2861 23.2367 22.3226C22.9438 22.3736 22.5165 22.4716 21.8421 22.5102C11.8279 23.0834 7.37836 19.7189 6.86764 15.9896V15.9896ZM13.3642 15.9896C11.6934 14.3147 11.2577 12.4907 12.989 10.9189C14.2595 9.76616 15.9762 8.61965 20.2662 8.82602C20.5049 8.83748 20.4955 9.18144 20.2579 9.1804C13.7592 9.16477 11.8091 13.4371 15.5572 15.6301C15.7708 15.7562 15.9887 15.876 16.2065 15.9907H16.2096C19.4105 17.6636 23.0074 18.1441 26.6033 18.2014C30.6484 18.265 34.7373 17.7334 40.3083 15.9844H40.3271C40.4052 15.9563 40.4834 15.9292 40.5616 15.9052C40.6648 15.8729 40.7513 15.9156 40.7836 15.9907C40.8023 16.0388 40.8012 16.0924 40.7805 16.1397C40.7492 16.219 40.7211 16.319 40.6658 16.441C40.59 16.6064 40.4914 16.7604 40.3729 16.8985C35.9703 22.1079 27.5007 22.0891 20.9916 20.0921C17.8492 19.1269 15.0141 17.6333 13.3694 15.9896H13.3642V15.9896ZM17.8585 15.8573C17.5257 15.6703 17.2137 15.4484 16.9278 15.1954C15.651 14.0593 14.4857 12.596 17.0977 10.6823C17.2874 10.5437 17.4958 10.8012 17.3197 10.9585C15.2862 12.7659 17.4677 15.0766 21.2814 15.9375C21.4555 15.9761 21.6285 16.0126 21.8036 16.0459C23.2229 16.2984 24.6708 16.3478 26.104 16.1929C26.7117 16.1283 27.3235 16.0501 27.927 15.9469C31.8043 15.283 34.1672 13.9885 35.9067 12.5272C38.0393 10.7397 39.1774 8.64153 39.0055 5.22284C38.9982 5.07692 39.1232 4.99146 39.2556 5.05295C39.3703 5.10611 39.5224 5.1676 39.6944 5.25098C39.8726 5.33749 40.0748 5.44798 40.2812 5.5939C46.5943 10.0497 42.814 13.7956 36.8625 15.7927C36.5339 15.9025 36.2031 16.0057 35.8703 16.1022C30.0428 17.8063 22.257 18.0846 18.2629 16.0782C18.1266 16.0074 17.9918 15.9338 17.8585 15.8573V15.8573ZM3.17483 5.67624C7.57744 0.4669 16.046 0.485658 22.5551 2.48268C28.9005 4.43071 33.991 8.53731 30.5588 11.6537C29.2893 12.8076 27.5716 13.9541 23.2815 13.7487C23.0429 13.7362 23.0522 13.3923 23.2909 13.3944C29.7885 13.411 31.7397 9.13662 27.9916 6.9447C24.6303 4.9779 20.7863 4.43384 16.9434 4.37443C12.8378 4.3098 8.68643 4.85804 2.98513 6.67057C2.82566 6.72165 2.7058 6.5924 2.76625 6.4371C2.79752 6.35789 2.8267 6.25679 2.8809 6.13484C2.94135 6.00143 3.02786 5.84822 3.17483 5.67624ZM25.4787 15.4758C23.0522 15.4675 20.3673 15.2361 18.586 13.2265C18.4307 13.0514 18.6642 12.819 18.8383 12.9785C21.9349 15.7916 30.3774 14.741 32.2817 11.7778C33.8336 9.36071 32.8737 7.4377 31.0716 5.70021C29.1465 3.8439 26.1749 2.25546 20.2923 0.598226C20.0922 0.541943 20.1047 0.288666 20.311 0.253229C20.6029 0.202157 21.0313 0.10314 21.7056 0.0645754C42.8431 -1.15073 39.1858 15.1871 26.0259 15.4727C25.8424 15.4758 25.6611 15.4758 25.4787 15.4758V15.4758Z" fill="black"/>
</svg>
