<svg width="86" height="44" viewBox="0 0 86 44" fill="none" xmlns="http://www.w3.org/2000/svg">
<path d="M22.1582 20.1165C23.3754 20.1165 24.3599 19.1318 24.3599 17.9111C24.3599 16.6941 23.3754 15.7094 22.1582 15.7094C20.941 15.7094 19.953 16.6939 19.953 17.9111C19.953 19.1318 20.941 20.1165 22.1582 20.1165ZM17.439 9.76568C12.1928 9.76568 7.87308 13.4279 7.87308 18.863C7.87308 23.4334 10.6267 26.6958 14.7325 27.3203V33.6787H23.2777V27.5677H24.4657C25.8537 27.4367 26.7908 26.5213 26.8056 25.2315V21.697H29.1343L23.8369 9.76568H17.439ZM33.8964 21.697H36.2257L30.9939 9.76568H27.5679L32.8177 21.697H30.4271V24.865C30.4341 26.7832 29.6278 27.6042 27.019 27.5679V33.6789H30.416V27.5679H31.5385C32.5305 27.5971 33.8785 26.7905 33.8964 25.2209V21.697ZM0 21.5441C0 9.64247 9.64601 0 21.5443 0C33.4424 0 43.0886 9.64247 43.0886 21.5441C43.0886 33.4391 33.4429 43.0846 21.5443 43.0846C9.64577 43.0846 0 33.4391 0 21.5441Z" fill="#030404"/>
<path d="M52.861 20.9574H54.7687C56.3892 20.9574 57.2759 19.9513 57.2759 18.7013C57.2759 17.4116 56.3456 16.4417 54.7687 16.4417H52.861V20.9574ZM50.0017 16.4452H48.0252V14H54.5614C58.1035 14 60.1344 15.8273 60.1344 18.7013C60.1344 21.6295 58.0128 23.4135 54.6523 23.4135C54.3722 23.4175 52.861 23.4135 52.861 23.4135V27.1339H55.1755V29.5935H48V27.1339H50.0017V16.4452Z" fill="#030404"/>
<path d="M65.8577 20.2417H67.5654C68.8514 20.2417 69.7197 19.4787 69.7197 18.3378C69.7197 17.2116 68.8585 16.4452 67.5654 16.4452H65.8577V20.2417ZM65.8577 27.1339H67.6775C69.1781 27.1339 70.1954 26.3092 70.1954 24.9136C70.1954 23.7296 69.4036 22.7014 67.6775 22.7014H65.8577V27.1339ZM62.9984 16.4452H61.2038V14H67.4702C71.3508 14 72.5859 16.3216 72.5859 18.0146C72.5859 19.4495 71.8229 20.6048 70.7075 21.1499C72.2736 21.8038 73.156 23.4173 73.156 24.8262C73.156 28.2237 70.4893 29.593 67.9355 29.593H61V27.1334H62.9981V16.4452H62.9984Z" fill="#030404"/>
<path d="M82.4443 16.6304C81.9362 16.4342 81.2674 16.2561 80.5956 16.2561C78.6846 16.2561 78.0738 17.364 78.0738 18.2288C78.0738 19.3553 78.8043 19.6891 79.7124 19.9327L81.3616 20.3979C83.393 20.9756 85.6378 21.7237 85.6378 24.9355C85.6378 27.8783 83.8648 30.0253 79.9449 30.0253C78.4262 30.0253 76.8495 29.8475 75 29.1641V25.0663H77.8778V27.1004C78.6043 27.4347 79.3965 27.5037 80.2026 27.5037C81.8957 27.5037 82.6439 26.5921 82.6439 25.4189C82.6439 24.6234 82.2483 24.0488 80.3986 23.519L78.8799 23.0754C76.0426 22.2578 75.0803 21.0156 75.0803 18.6285C75.0803 16.1654 76.6167 14 80.515 14C82.1937 14 83.8646 14.3053 85.0455 14.8174V18.5159H82.4441V16.6304H82.4443Z" fill="#030404"/>
</svg>
