<svg width="135" height="24" viewBox="0 0 135 24" fill="none" xmlns="http://www.w3.org/2000/svg">
<path d="M4.51343 22.9017H0V1H4.51343V22.9017Z" fill="#030404"/>
<path d="M8 7.3494H12.3678V8.82228C12.9075 8.23541 13.5632 7.76996 14.2923 7.45616C15.0214 7.14236 15.8076 6.98722 16.5998 7.00082C20.162 7.00082 22.1712 9.35743 22.1712 12.8923V23.3105H17.8034V13.8251C17.8034 12.151 16.9589 11.007 15.2312 11.007C14.5771 10.9902 13.937 11.2002 13.417 11.602C12.8971 12.0039 12.5286 12.5735 12.3727 13.2164V23.3105H8.00485L8 7.3494Z" fill="#030404"/>
<path d="M24.034 17.9558C25.5364 19.3067 27.456 20.0876 29.4647 20.1651C30.7702 20.1651 31.7942 19.7724 31.7942 18.8101C31.7942 17.8478 31.0905 17.5974 29.9936 17.239L28.4795 16.8119C25.7277 16.0607 24 14.7449 24 11.9956C24 8.89272 26.645 7.00253 30.1732 7.00253C31.9579 6.95978 33.7143 7.45913 35.2156 8.43613V12.4669C33.8034 11.323 32.1824 10.5031 30.3625 10.5031C29.1638 10.5031 28.2465 10.9646 28.2465 11.8581C28.2465 12.7517 28.8483 13.002 29.9403 13.3555L31.702 13.8907C34.7012 14.7449 36.0698 16.1736 36.0698 18.7414C36.0698 21.9522 33.2841 23.6509 29.5811 23.6509C27.4991 23.6509 25.3492 23.0814 24.0097 22.0455L24.034 17.9558Z" fill="#030404"/>
<path d="M43.3678 22.9463H39V7H43.3678V22.9463Z" fill="#030404"/>
<path d="M56.1089 21.8673C55.5974 22.4036 54.9834 22.829 54.3043 23.1177C53.6251 23.4063 52.895 23.5522 52.1584 23.5464C47.5722 23.5464 45 19.8004 45 15.2344C45 10.6685 47.5722 6.88815 52.1584 6.88815C52.8951 6.88206 53.6252 7.02779 54.3044 7.31647C54.9836 7.60514 55.5976 8.03071 56.1089 8.56723V0H60.5155V23.188H56.1089V21.8673ZM56.1089 12.5931C55.832 12.0381 55.4091 11.5712 54.8868 11.2438C54.3645 10.9163 53.7629 10.7411 53.1485 10.7373C50.785 10.7373 49.3727 12.6618 49.3727 15.2344C49.3727 17.8071 50.785 19.6924 53.1485 19.6924C53.7654 19.7006 54.3719 19.5303 54.8964 19.2015C55.4209 18.8727 55.8416 18.3991 56.1089 17.8365V12.5931Z" fill="#030404"/>
<path d="M67.198 16.3479C67.5523 18.9499 69.4207 20.0202 71.7454 20.0202C73.3571 20.0504 74.9369 19.5641 76.2588 18.6308V22.2688C74.9533 23.2507 73.1916 23.6582 71.0757 23.6582C66.2807 23.6582 63 20.521 63 15.4543C63 10.3876 66.1012 7 70.4059 7C74.9921 7 77.3508 10.2109 77.3508 14.9192V16.3479H67.198ZM67.3387 13.4561H73.2984C73.1916 11.7427 72.2404 10.5104 70.5127 10.5104C69.0664 10.5349 67.8337 11.4628 67.3484 13.461L67.3387 13.4561Z" fill="#030404"/>
<path d="M88.551 11.7161C87.8816 11.3481 87.1287 11.1636 86.3671 11.1809C84.8869 11.1809 83.6881 11.9665 83.3678 13.4295V23.3125H79V7.36127H83.3678V8.92743C83.7418 8.32143 84.266 7.82496 84.8884 7.48734C85.5107 7.14972 86.2096 6.9827 86.9155 7.00287C87.4806 6.98162 88.044 7.07856 88.5704 7.28763L88.551 11.7161Z" fill="#030404"/>
<path d="M97.8005 22.9017H96V1H97.8005V22.9017Z" fill="#030404"/>
<path d="M102 7.31912H103.762V9.85247C104.301 8.99731 105.039 8.28966 105.913 7.79214C106.787 7.29462 107.768 7.02255 108.77 7C112.332 7 114.201 9.31733 114.201 12.6706V23.1574H112.473V12.9357C112.473 10.4809 111.24 8.65453 108.455 8.65453C106.305 8.65453 104.538 10.1863 103.767 12.0912V23.1869H102.005L102 7.31912Z" fill="#030404"/>
<path d="M124.28 7.00334C125.785 6.95433 127.259 7.44662 128.439 8.39275V10.2142C127.895 9.68721 127.254 9.27409 126.552 8.99858C125.85 8.72307 125.101 8.5906 124.348 8.60877C121.247 8.60877 118.742 11.0636 118.742 15.2465C118.742 19.4295 121.247 21.8843 124.348 21.8843C125.101 21.9025 125.85 21.77 126.552 21.4945C127.254 21.219 127.895 20.8059 128.439 20.2789V22.1003C127.259 23.0464 125.785 23.5387 124.28 23.4897C120.082 23.4897 117 20.2445 117 15.2514C117 10.2584 120.087 7.00334 124.28 7.00334Z" fill="#030404"/>
<path d="M40.5964 5.25326C42.0304 5.25326 43.1929 4.07727 43.1929 2.62663C43.1929 1.17598 42.0304 0 40.5964 0C39.1625 0 38 1.17598 38 2.62663C38 4.07727 39.1625 5.25326 40.5964 5.25326Z" fill="#030404"/>
<path d="M132.951 22.9473C134.028 22.9473 134.902 22.0637 134.902 20.9737C134.902 19.8836 134.028 19 132.951 19C131.873 19 131 19.8836 131 20.9737C131 22.0637 131.873 22.9473 132.951 22.9473Z" fill="#030404"/>
</svg>
