<svg width="153" height="29" viewBox="0 0 153 29" fill="none" xmlns="http://www.w3.org/2000/svg">
<path d="M11 16.8534L16.6539 22.4455L27.936 11.2099V0" fill="#030404"/>
<path d="M0 6V28.4968L11.3079 17.2612" fill="#030404"/>
<path d="M11.3079 16.6434L0 27.879H28.2438V11L16.9618 22.2356" fill="#030404"/>
<path d="M133.938 15.1813C133.938 12.3082 135.254 11 138.094 11C140.908 11 142.328 12.3339 142.302 15.2839V15.9765H139.798V15.4634C139.798 14.0526 139.308 13.3856 138.12 13.3856C137.036 13.3856 136.442 14.0526 136.442 15.2839V23.4669C136.442 24.6981 137.036 25.3651 138.12 25.3651C139.308 25.3651 139.798 24.6725 139.798 23.2873V22.7743H142.302V23.5951C142.277 26.4681 140.882 27.7764 138.094 27.7764C135.254 27.7764 133.938 26.4681 133.938 23.5951V15.1813Z" fill="#030404"/>
<path fill-rule="evenodd" clip-rule="evenodd" d="M68.8013 27.5968H65.9356L63.1216 21.2351H61.2628V27.5968H58.7585V11.2052H63.9219C66.8134 11.2052 68.0526 12.3852 68.0526 15.1813V17.2591C68.0526 19.0547 67.3298 20.3117 65.9356 20.876L65.7549 20.953L68.8013 27.5968ZM63.7412 13.4113H61.2886V19.0291H63.7412C64.9546 19.0291 65.5484 18.4134 65.5484 17.1308V15.3095C65.5484 14.0269 64.9546 13.4113 63.7412 13.4113Z" fill="#030404"/>
<path d="M73.4226 11.2052H70.8925V27.5968H73.4226V11.2052Z" fill="#030404"/>
<path d="M80.6513 27.5968H77.7856L73.8098 19.183L77.6824 11.2052H80.5223L76.5464 19.1573L76.4948 19.2343L80.6513 27.5968Z" fill="#030404"/>
<path d="M90.152 11.2052V13.4113H84.8337V18.1569H89.7131V20.3886H84.8337V25.3651H90.152V27.5968H82.3294V11.2052H90.152Z" fill="#030404"/>
<path d="M91.6752 11.2052H100.582V13.4113H97.3808V27.5968H94.8765V13.4113H91.6752V11.2052Z" fill="#030404"/>
<path fill-rule="evenodd" clip-rule="evenodd" d="M107.372 11.2052C110.263 11.2052 111.503 12.3852 111.503 15.1813V17.2591C111.503 19.8499 110.031 21.2351 107.243 21.2351H104.971V27.5968H102.467V11.2052H107.372ZM107.191 19.0291C108.405 19.0291 108.998 18.4134 108.998 17.1308V15.3095C108.998 14.0269 108.405 13.4113 107.191 13.4113H104.997V19.0291H107.191Z" fill="#030404"/>
<path d="M113.594 27.5968V11.2052H116.176V25.2881H121.184L120.668 27.5968H113.594Z" fill="#030404"/>
<path fill-rule="evenodd" clip-rule="evenodd" d="M130.117 27.5968L129.368 23.8773H125.392L124.644 27.5968H122.088L125.909 11.2052H128.852L132.698 27.5968H130.117ZM128.929 21.7225L127.38 14.2578L125.831 21.7225H128.929Z" fill="#030404"/>
<path fill-rule="evenodd" clip-rule="evenodd" d="M54.6794 27.5968L53.9307 23.8773H49.9549L49.2062 27.5968H46.6245L50.4713 11.2052H53.4144L57.2611 27.5968H54.6794ZM53.4918 21.7225L51.9428 14.2578L50.3938 21.7225H53.4918Z" fill="#030404"/>
<path d="M42.8036 27.5968V16.3356L39.5765 23.6208L36.3752 16.3356V27.5968H34V11.2052H36.6075L39.5765 18.1056L42.5712 11.2052H45.1788V27.5968H42.8036Z" fill="#030404"/>
<path d="M152.061 11.2051V13.4112H146.717V18.1824H151.596V20.3372H146.717V25.365H152.061V27.5967H144.213V11.2051H152.061Z" fill="#030404"/>
</svg>
