<svg width="170" height="38" viewBox="0 0 170 38" fill="none" xmlns="http://www.w3.org/2000/svg">
<path d="M30.4861 37.8711H30V23.1999V0H30.4861V18.1622V37.8711Z" fill="#030404"/>
<path d="M0 5V12.6449C0.0883805 20.6875 4.15388 27.6254 11.3569 32.2212L11.4895 32.3096L11.622 32.2212C18.8251 27.6254 22.8906 20.6875 22.9789 12.6449V5H0ZM11.4895 31.6467C4.5516 27.1835 0.662857 20.4666 0.486096 12.7333H22.4487C22.3161 20.4666 18.4273 27.1835 11.4895 31.6467ZM22.537 12.2472H0.530282V5.48608H22.537V12.2472ZM1.50247 9.55159C1.19314 9.5074 0.972187 9.59578 1.01638 9.9493C1.06057 10.1703 1.19314 10.2144 1.50247 10.1703C1.54666 10.1703 1.63504 10.2145 1.63504 10.3028C1.63504 10.5238 1.63504 10.7005 1.63504 10.9215C1.85599 11.0541 2.07694 11.0541 2.34209 11.0099H3.66779C3.75617 11.0099 3.84455 11.0099 3.88874 11.0099C3.93293 11.0541 3.97712 11.0983 4.02131 11.1424C4.15388 11.1866 4.28646 11.1866 4.41903 11.1424C4.46322 11.1424 4.46322 11.1424 4.50741 11.1424C4.63998 11.0983 4.77255 11.0541 4.90512 11.0983H6.31921C6.49597 11.1424 6.67273 11.0982 6.8053 11.0541C6.84949 10.8331 6.84949 10.6563 6.8053 10.4354C6.8053 10.3912 6.8053 10.3028 6.89368 10.3028C6.98206 10.3028 7.02625 10.3028 7.11463 10.3028C7.55653 10.3028 7.51234 9.90511 7.29139 9.72835C7.07044 9.55159 6.84949 9.77254 6.8053 9.55159V8.31427C6.76111 8.1817 6.76111 8.04912 6.8053 7.96074C7.11463 7.96074 7.29139 7.96074 7.37977 7.73979C7.42396 7.56303 7.33558 7.38627 7.15882 7.29789C7.07044 7.29789 7.07044 7.29789 6.93787 7.29789C6.8053 7.29789 6.84949 7.29788 6.84949 7.25369V7.20951C6.89368 7.03275 6.84949 6.81179 6.8053 6.63503C6.54016 6.54665 6.27502 6.54665 6.05406 6.59084C5.96568 6.45827 5.83312 6.54665 5.65635 6.59084C5.39121 6.59084 5.17026 6.59084 4.90512 6.59084C4.72836 6.59084 4.5516 6.63504 4.37484 6.72342C4.28646 6.72342 4.24227 6.7676 4.19808 6.81179C4.0655 6.72341 3.97712 6.63503 3.80036 6.59084C3.49103 6.59084 3.1817 6.59084 2.87237 6.59084C2.7398 6.54665 2.60722 6.54666 2.47465 6.50247C2.43046 6.54666 2.38628 6.54665 2.34209 6.59084C2.2537 6.59084 2.16532 6.59084 2.07694 6.59084H1.98856C1.90018 6.59084 1.76761 6.59084 1.67923 6.59084C1.45828 6.67922 1.72342 7.20951 1.50247 7.34208C1.19314 7.34208 1.06057 7.34208 1.01638 7.60722C0.927997 7.96075 1.28152 7.96074 1.63504 8.00493C1.63504 8.22588 1.63504 8.49103 1.63504 8.75617C1.72342 8.93293 1.67923 9.24226 1.50247 9.55159C1.54666 9.55159 1.54666 9.55159 1.50247 9.55159ZM3.93293 10.4796H3.88874C3.35846 10.4354 2.96075 10.5238 2.38627 10.4796C2.2537 10.3028 2.51884 10.1261 2.69561 10.1261C3.04913 10.1702 3.44684 10.2144 3.80036 10.1703C3.88874 10.1703 3.97712 10.2144 4.0655 10.2586C4.10969 10.3912 3.97712 10.3912 3.93293 10.4796ZM6.31921 6.72342C6.40759 6.59085 6.58435 6.59084 6.71692 6.67922L6.76111 6.72342C6.84949 6.85599 6.67273 7.2537 6.84949 7.34208C6.89368 7.34208 6.98206 7.34208 7.02625 7.34208H7.15882C7.20301 7.34208 7.2472 7.34208 7.29139 7.38627C7.37977 7.43046 7.37977 7.56304 7.33558 7.65142C7.29139 7.69561 7.2472 7.73979 7.20301 7.73979C7.07044 7.73979 7.02625 7.73979 6.93787 7.73979C6.84949 7.73979 6.76111 8.00493 6.76111 8.22588C6.76111 8.44684 6.71692 9.15388 6.76111 9.5074C6.76111 9.72835 7.02625 9.59579 7.20301 9.63998C7.2472 9.68417 7.33558 9.72835 7.33558 9.77254C7.42396 10.2144 6.8053 9.86092 6.71692 10.1261C6.62854 10.3912 6.76111 10.5238 6.71692 10.7005C6.67273 10.7889 6.58435 10.8773 6.49597 10.8331H5.74473H5.4354C5.25864 10.8331 5.03769 10.8331 4.72836 10.8331C4.63998 10.7889 4.63998 10.7447 4.63998 10.6563C4.63998 10.6122 4.68417 10.568 4.72836 10.568C4.94931 10.568 5.17026 10.568 5.4354 10.568C5.65635 10.568 5.70054 10.568 5.9215 10.568C6.09826 10.6122 6.31921 10.568 6.45178 10.4796C6.45178 9.86093 6.45178 9.5074 6.45178 8.88874V7.47464C6.45178 7.29788 6.45178 7.16532 6.45178 6.98856C6.45178 6.90018 6.40759 6.8118 6.31921 6.72342C6.31921 6.72342 6.31921 6.67923 6.31921 6.72342ZM6.05406 6.85598C6.05406 6.81179 6.05407 6.8118 6.09826 6.76761C6.14245 6.76761 6.18664 6.81179 6.23083 6.85598C6.27502 6.90017 6.31921 6.98855 6.3634 7.03274C6.40759 7.25369 6.3634 7.65142 6.3634 7.87237C6.3634 7.96075 6.3634 8.00494 6.3634 8.09332C6.3634 8.13751 6.3634 8.22589 6.3634 8.27008C6.40759 8.88874 6.3634 10.1261 6.3634 10.2586C6.3634 10.3912 6.3634 10.347 6.31921 10.3028C6.23083 10.1703 6.14245 10.0377 6.09826 9.90511C6.05407 8.5794 6.09826 8.04912 6.05406 6.85598ZM6.14245 10.3028C6.18664 10.347 6.23083 10.3912 6.23083 10.4354C6.23083 10.568 5.92149 10.5238 5.78892 10.5238C5.30283 10.5238 5.08188 10.5238 4.59579 10.5238C4.50741 10.4354 4.50741 10.347 4.59579 10.2586C4.72836 10.0819 5.52378 10.2586 5.9215 10.1261C6.00988 10.1261 6.09826 10.2145 6.14245 10.3028ZM4.33065 8.53522C4.33065 8.13751 4.33065 7.82818 4.33065 7.43046C4.33065 7.29789 4.33065 7.12113 4.33065 6.94437C4.33065 6.85599 4.37484 6.76761 4.41903 6.72342C4.50741 6.63504 4.63998 6.59085 4.72836 6.54666C4.9935 6.50247 5.30283 6.54666 5.61216 6.54666C5.65635 6.54666 5.74473 6.54666 5.78892 6.54666C5.8773 6.54666 5.9215 6.63504 5.96569 6.72342C5.96569 7.6956 5.96569 8.84455 5.96569 9.63998C5.96569 9.77255 5.96569 9.86092 5.96569 9.99349C5.83311 10.0819 5.65635 10.0819 5.52378 10.0819C5.39121 10.0819 5.21445 10.0819 5.08188 10.0819C4.94931 10.0819 4.86093 10.0819 4.72836 10.0819C4.68417 10.0819 4.59579 10.1261 4.5516 10.1703C4.50741 10.2144 4.46322 10.2144 4.37484 10.2144C4.33065 10.0819 4.33065 9.90511 4.37484 9.77254C4.33065 9.33064 4.33065 8.80036 4.33065 8.53522ZM4.50741 10.6122C4.5516 10.6563 4.5516 10.7005 4.5516 10.7889C4.5516 10.8773 4.50741 10.9657 4.46322 11.0099C4.41903 11.0541 4.37484 11.0983 4.33065 11.0983C4.28646 11.0983 4.24227 11.0983 4.15389 11.0983C4.1097 11.0983 4.0655 11.0541 4.02131 11.0099C3.97712 10.9657 3.93293 10.9215 3.93293 10.8773C3.93293 10.8331 3.93293 10.7889 3.93293 10.7447C3.93293 10.6122 3.97713 10.5238 4.1097 10.4796C4.24227 10.3912 4.37484 10.4354 4.46322 10.568C4.50741 10.568 4.50741 10.6122 4.50741 10.6122ZM2.56304 9.59578C2.56304 8.80036 2.56304 7.91655 2.56304 7.03274C2.56304 6.90017 2.56304 6.8118 2.56304 6.67922C2.60723 6.63503 2.69561 6.59084 2.78399 6.59084C2.82818 6.59084 2.91656 6.59084 3.00494 6.59084H3.22589C3.31427 6.59084 3.40265 6.63503 3.49103 6.63503C3.53522 6.63503 3.57941 6.63503 3.66779 6.59084C3.88874 6.59084 4.10969 6.67922 4.24226 6.85598C4.24226 7.6956 4.24226 8.53522 4.24226 9.19808C4.28645 9.50741 4.24227 9.86092 4.19808 10.1703C4.0655 10.1703 3.93293 10.1261 3.84455 10.0819C3.53522 10.0377 3.1817 10.1261 2.87237 10.0819C2.78399 10.0819 2.69561 10.0377 2.60723 9.99349C2.56304 9.86092 2.56304 9.72836 2.56304 9.59578ZM2.34209 6.76761C2.38628 6.76761 2.43046 6.7676 2.43046 6.81179V9.10969C2.47465 9.41902 2.43047 9.77255 2.34209 10.0819C2.29789 10.1703 2.20951 10.2586 2.12113 10.2586C2.07694 9.5074 2.12113 8.80036 2.12113 8.27008C2.12113 8.1817 2.12113 8.09331 2.12113 7.96074C2.12113 7.96074 2.12113 7.87236 2.12113 7.82817C2.12113 7.78398 2.12113 7.73979 2.12113 7.6956C2.12113 7.56302 2.12113 7.43046 2.12113 7.34208C2.12113 7.12113 2.16532 6.90018 2.34209 6.76761ZM1.72342 9.5074C1.72342 9.37483 1.72342 9.24226 1.72342 9.10969V8.71198C1.76761 8.40265 1.72342 8.09331 1.67923 7.78398C1.54666 7.65141 1.28152 7.87237 1.14895 7.65142C1.10476 7.51885 1.14894 7.38627 1.28152 7.34208H1.32571C1.50247 7.29789 1.63504 7.43045 1.67923 7.25369C1.67923 7.07693 1.67923 6.94437 1.67923 6.76761C1.67923 6.67923 1.72342 6.63503 1.8118 6.63503C1.94437 6.59084 2.07694 6.63504 2.16532 6.72342C2.16532 6.76761 2.12113 6.81179 2.12113 6.85598C2.07694 6.90017 2.07694 6.94437 2.03275 6.94437C1.98856 7.20951 1.98856 7.47464 2.03275 7.6956C2.03275 8.22588 2.03275 8.5794 2.03275 9.0213V9.19808C2.03275 9.28646 2.03275 9.33065 2.03275 9.41903C2.03275 9.46322 2.03275 9.5074 2.03275 9.55159C2.03275 9.63997 2.03275 9.68416 2.03275 9.77254C2.03275 9.86092 2.03275 9.86093 2.03275 9.86093C2.03275 10.0819 1.94437 10.568 2.12113 10.6122C2.29789 10.6563 2.43047 10.6563 2.60723 10.6122H3.66779C3.75617 10.6122 3.80036 10.6564 3.84455 10.7005C3.88874 10.7889 3.84455 10.8331 3.80036 10.8773C3.80036 10.8773 3.80036 10.8773 3.75617 10.8773C3.04913 10.8773 2.56303 10.8773 1.85599 10.8773C1.76761 10.8331 1.72342 10.7005 1.76761 10.568C1.76761 10.347 1.85599 10.1261 1.67923 10.0377C1.59085 10.0377 1.45828 10.0377 1.3699 10.0377C1.28152 10.0377 1.19314 9.94931 1.19314 9.86093C1.19314 9.77255 1.23732 9.72835 1.28152 9.68416C1.32571 9.63997 1.3699 9.63998 1.45828 9.63998C1.54666 9.63998 1.72342 9.72835 1.72342 9.5074ZM2.73979 7.73979V7.65142H3.40265V7.78398H3.35846C3.27008 7.78398 3.22589 7.78399 3.22589 7.87237C3.22589 7.91656 3.22589 7.96074 3.22589 8.00493L3.49103 8.84454L3.75617 7.91655C3.75617 7.87236 3.75617 7.87236 3.75617 7.82817C3.75617 7.73979 3.71198 7.73979 3.6236 7.73979V7.65142H4.1097V7.78398C4.06551 7.78398 3.97712 7.82818 3.97712 7.87237C3.93293 7.96075 3.93293 8.00494 3.88874 8.09332L3.53522 9.41903H3.40265L2.96075 8.04913C2.87237 7.78398 2.87237 7.78398 2.73979 7.73979ZM16.3946 8.09332H16.3062V7.56303H16.3946C16.3946 7.60722 16.4388 7.60722 16.483 7.60722H17.411C17.4552 7.60722 17.4552 7.60722 17.4552 7.56303H17.5435V8.09332C17.4993 7.78399 17.4993 7.78398 17.3668 7.78398H17.1458V8.97712C17.1458 9.15388 17.1458 9.19808 17.2784 9.19808H17.3226V9.33064H16.6155V9.24225H16.6597C16.7923 9.24225 16.7923 9.24225 16.7923 9.0213V7.78398H16.5713C16.4388 7.78398 16.4388 7.78399 16.3946 8.09332ZM5.61216 9.33064H4.5516V9.24225H4.63998C4.72836 9.24225 4.77255 9.24225 4.77255 9.0213V8.00493C4.77255 7.78398 4.77255 7.78398 4.63998 7.78398V7.65142H5.65635V8.04913H5.56797C5.56797 7.82817 5.52378 7.82817 5.4354 7.82817H5.08188V8.44684H5.34702C5.47959 8.44684 5.47959 8.44684 5.47959 8.27008H5.56797V8.84454H5.47959V8.75617C5.47959 8.6236 5.47959 8.5794 5.34702 8.5794H5.08188V8.93293C5.03769 9.02131 5.03769 9.0655 5.08188 9.15388H5.39121C5.52378 9.15388 5.56797 9.10969 5.61216 8.88874H5.70054L5.61216 9.33064ZM19.7089 8.97712C19.7089 8.84455 19.6205 8.71198 19.5321 8.66779L19.4437 8.5794C19.3553 8.53521 19.3111 8.44683 19.267 8.35845C19.2228 8.27007 19.1786 8.13751 19.1786 8.04913C19.1344 7.82817 19.3111 7.60722 19.5321 7.60722C19.5321 7.60722 19.5321 7.60722 19.5763 7.60722C19.6647 7.60722 19.753 7.65142 19.8414 7.65142H19.8856L19.9298 8.09332H19.8856C19.8856 7.91656 19.753 7.78398 19.5763 7.73979C19.4879 7.73979 19.3995 7.82817 19.3995 7.91655C19.3995 8.00493 19.4879 8.1375 19.5763 8.18169H19.6205L19.7089 8.22588L19.8414 8.31427C19.974 8.44684 20.0624 8.62359 20.0624 8.80035C20.1066 9.06549 19.8856 9.28645 19.6647 9.33064C19.5763 9.33064 19.4879 9.33064 19.4437 9.28645H19.3553C19.3553 9.28645 19.3553 9.28645 19.3553 9.33064H19.267L19.2228 8.80035H19.3111C19.3111 8.97711 19.4437 9.15388 19.6205 9.19808C19.6647 9.19807 19.753 9.0655 19.7089 8.97712ZM15.0247 9.55159C14.7154 9.5074 14.4944 9.59578 14.5386 9.9493C14.5828 10.1703 14.7154 10.2144 15.0247 10.1703C15.0689 10.1703 15.1573 10.2145 15.1573 10.3028C15.1573 10.5238 15.1573 10.7005 15.1573 10.9215C15.3782 11.0541 15.5992 11.0541 15.8643 11.0099H17.4993C17.5877 11.0099 17.6761 11.0099 17.7203 11.0099C17.7645 11.0541 17.8087 11.0983 17.8529 11.1424C17.9854 11.1866 18.118 11.1866 18.2506 11.1424C18.2948 11.1424 18.339 11.1424 18.339 11.1424C18.4715 11.0983 18.6041 11.0541 18.7367 11.0983H20.6369C20.8136 11.1424 20.9904 11.0982 21.1229 11.0541C21.1671 10.8331 21.1671 10.6563 21.1229 10.4354C21.1229 10.3912 21.1229 10.3028 21.2113 10.3028C21.2997 10.3028 21.3439 10.3028 21.4323 10.3028C21.8742 10.3028 21.83 9.90511 21.609 9.72835C21.3881 9.55159 21.1671 9.77254 21.1229 9.55159V8.31427C21.0788 8.1817 21.0788 8.04912 21.1229 7.96074C21.4323 7.96074 21.609 7.96074 21.6974 7.73979C21.7416 7.56303 21.6532 7.38627 21.4765 7.29789H21.4323C21.3439 7.29789 21.3439 7.29789 21.2113 7.29789C21.0788 7.29789 21.1229 7.29788 21.1229 7.25369V7.20951C21.1671 7.03275 21.1229 6.81179 21.0788 6.63503C20.8136 6.54665 20.5485 6.54665 20.3275 6.59084C20.2391 6.45827 20.1066 6.54665 19.9298 6.59084C19.753 6.63503 18.9576 6.59084 18.6925 6.59084C18.5157 6.59084 18.339 6.63504 18.1622 6.72342C18.0738 6.72342 18.0296 6.7676 17.9854 6.81179C17.8529 6.72341 17.7645 6.63503 17.5877 6.59084C17.3226 6.50246 16.7039 6.59084 16.3504 6.59084C16.2178 6.54665 16.0853 6.54666 15.9527 6.50247C15.9085 6.54666 15.8643 6.54665 15.8201 6.59084C15.7317 6.59084 15.6434 6.59084 15.555 6.59084H15.4666C15.3782 6.59084 15.2456 6.59084 15.1573 6.59084C14.9363 6.67922 15.2015 7.20951 14.9805 7.34208C14.6712 7.34208 14.4944 7.34208 14.4944 7.60722C14.406 8.00494 14.7595 8.00493 15.0689 8.00493C15.0689 8.22588 15.0689 8.49103 15.0689 8.75617C15.1573 8.97712 15.1131 9.28645 15.0247 9.55159C14.9805 9.55159 15.0247 9.55159 15.0247 9.55159ZM17.7645 10.4796C17.7645 10.4796 17.7203 10.4796 17.6761 10.4796C17.1458 10.4354 16.4388 10.5238 15.8643 10.4796C15.7317 10.3028 16.0411 10.1261 16.1736 10.1261C16.6597 10.1702 17.1458 10.2144 17.5877 10.1703C17.6761 10.1703 17.7645 10.2144 17.8529 10.2586C17.8971 10.3912 17.7645 10.3912 17.7645 10.4796ZM18.2948 10.9657C18.2506 11.0099 18.2064 11.0541 18.1622 11.0541C18.118 11.0541 18.0738 11.0541 17.9854 11.0541C17.9412 11.0541 17.8971 11.0099 17.8971 10.9657C17.8529 10.9215 17.8087 10.8773 17.8087 10.8331C17.8087 10.7889 17.8087 10.7447 17.8087 10.7005C17.8087 10.568 17.8529 10.4796 17.9854 10.4354C18.118 10.347 18.2506 10.3912 18.339 10.4796L18.3831 10.5238C18.4273 10.568 18.4273 10.6122 18.4273 10.7005C18.3831 10.8331 18.339 10.9215 18.2948 10.9657ZM20.6369 6.67922C20.7252 6.54665 20.902 6.54665 21.0346 6.63503L21.0788 6.67922C21.1671 6.8118 20.9904 7.20951 21.1671 7.29789C21.2113 7.29789 21.2997 7.29789 21.3439 7.29789H21.4765C21.5207 7.29789 21.5648 7.29789 21.609 7.34208C21.6974 7.38627 21.6974 7.51884 21.6532 7.60722C21.609 7.65141 21.5648 7.6956 21.5207 7.6956C21.3881 7.6956 21.3439 7.6956 21.2555 7.6956C21.1671 7.6956 21.0788 7.96074 21.0788 8.18169C21.0788 8.40264 21.0346 9.10968 21.0788 9.46321C21.0788 9.68416 21.3439 9.55159 21.5207 9.59578C21.5648 9.63998 21.6532 9.68416 21.6532 9.72835C21.7416 10.1703 21.1229 9.81674 21.0346 10.0819C20.9462 10.347 21.0788 10.4796 21.0346 10.6563C20.9904 10.7447 20.902 10.8331 20.8136 10.7889H20.0624H19.6205H18.5599C18.4715 10.7447 18.4715 10.7005 18.4715 10.6122C18.4715 10.568 18.5157 10.5238 18.5599 10.5238C18.7809 10.5238 19.267 10.5238 19.4437 10.5238H20.195C20.3717 10.568 20.5927 10.5238 20.7252 10.4354C20.7252 9.81673 20.7252 9.46321 20.7252 8.84454V7.47464C20.7252 7.29788 20.7252 7.16532 20.7252 6.98856C20.681 6.90018 20.6369 6.8118 20.6369 6.67922C20.5927 6.72341 20.5927 6.67922 20.6369 6.67922ZM20.3717 6.81179C20.3717 6.7676 20.3717 6.72342 20.4159 6.72342C20.4601 6.72342 20.5043 6.7676 20.5485 6.81179C20.5927 6.85598 20.6369 6.94437 20.681 6.98856C20.7252 7.20951 20.681 7.60722 20.681 7.82817C20.681 7.91655 20.681 7.96074 20.681 8.04913C20.681 8.09332 20.681 8.18169 20.681 8.22588C20.7252 8.84455 20.681 10.0819 20.681 10.2144C20.681 10.3028 20.681 10.3028 20.6369 10.2586C20.5485 10.1261 20.4601 9.9935 20.4159 9.86093C20.3275 8.57941 20.3717 8.04912 20.3717 6.81179ZM20.4159 10.2586C20.4601 10.3028 20.5043 10.347 20.5043 10.3912C20.5043 10.5238 20.195 10.4796 20.0624 10.4796H18.3831C18.2948 10.3912 18.2948 10.3028 18.3831 10.2144C18.5157 10.0377 19.753 10.2145 20.195 10.0819C20.3275 10.1261 20.3717 10.2144 20.4159 10.2586ZM16.0853 9.59578C16.0853 8.80036 16.0853 7.91655 16.0853 7.03274C16.0853 6.90017 16.0853 6.8118 16.0853 6.67922C16.1294 6.63503 16.2178 6.59084 16.3062 6.59084C16.3504 6.59084 16.4388 6.59084 16.5272 6.59084H16.7039C16.8365 6.59084 17.19 6.63503 17.3226 6.63503C17.4552 6.63503 17.411 6.63503 17.4993 6.59084C17.7203 6.59084 17.9412 6.67922 18.0738 6.85598C18.0738 6.94436 18.0738 7.07694 18.0738 7.20951H18.1622C18.1622 7.12113 18.1622 7.07694 18.1622 6.98856C18.1622 6.90018 18.2064 6.85598 18.2506 6.81179C18.339 6.72341 18.4715 6.67922 18.5599 6.63503C18.8251 6.59084 19.6205 6.63503 19.9298 6.63503C19.974 6.63503 20.0624 6.63503 20.1066 6.63503C20.195 6.63503 20.2391 6.72341 20.2833 6.81179C20.2833 7.78398 20.2833 8.93293 20.2833 9.72835C20.2833 9.86092 20.2833 9.94931 20.2833 10.0819C20.1508 10.1703 19.974 10.1703 19.8414 10.1703C19.6647 10.1703 19.0902 10.1703 18.9134 10.1703C18.7809 10.1703 18.6925 10.1703 18.5599 10.1703C18.5157 10.1703 18.4273 10.2144 18.3831 10.2586C18.339 10.3028 18.2948 10.3028 18.2064 10.3028C18.1622 10.1703 18.1622 9.9935 18.2064 9.86093H18.0738C18.0738 9.9935 18.0738 10.1261 18.0296 10.2586C17.8971 10.2586 17.7645 10.2144 17.6761 10.1703C17.3668 10.1261 16.7039 10.2144 16.3946 10.1703C16.3062 10.1703 16.2178 10.1261 16.1294 10.0819C16.0411 9.90512 16.0411 9.77255 16.0853 9.59578ZM15.8643 6.76761C15.9085 6.76761 15.9527 6.7676 15.9527 6.81179V9.10969C15.9969 9.41902 15.9527 9.77255 15.8643 10.0819C15.8201 10.1703 15.7317 10.2586 15.6434 10.2586C15.5992 9.5074 15.6434 8.80036 15.6434 8.27008C15.6434 8.1817 15.6434 8.09331 15.6434 7.96074C15.6434 7.96074 15.6434 7.87236 15.6434 7.82817C15.6434 7.82817 15.6434 7.73979 15.6434 7.6956C15.6434 7.56302 15.6434 7.43046 15.6434 7.34208C15.5992 7.12113 15.6875 6.90018 15.8643 6.76761ZM15.2456 9.5074C15.2456 9.37483 15.2456 9.24226 15.2456 9.10969C15.2456 8.97712 15.2456 8.84455 15.2456 8.71198C15.2898 8.40265 15.2456 8.09331 15.2015 7.78398C15.0689 7.65141 14.8037 7.87237 14.6712 7.65142C14.627 7.51885 14.6712 7.38627 14.8037 7.34208C14.8037 7.34208 14.8479 7.34208 14.8921 7.34208C15.0689 7.29789 15.2015 7.43045 15.2456 7.25369C15.2456 7.07693 15.2456 6.94437 15.2456 6.76761C15.2456 6.67923 15.2898 6.63503 15.3782 6.63503C15.5108 6.59084 15.6434 6.63504 15.7317 6.72342C15.7317 6.76761 15.6875 6.81179 15.6875 6.85598C15.6434 6.90017 15.6434 6.94437 15.5992 6.94437C15.555 7.20951 15.555 7.47464 15.5992 7.6956C15.5992 8.22588 15.5992 8.5794 15.5992 9.0213C15.5992 9.06549 15.5992 9.15388 15.5992 9.19808C15.5992 9.24227 15.5992 9.33065 15.5992 9.41903C15.5992 9.46322 15.5992 9.5074 15.5992 9.55159C15.5992 9.63997 15.5992 9.68416 15.5992 9.77254C15.5992 9.86092 15.5992 9.86093 15.5992 9.86093C15.5992 10.0819 15.5108 10.568 15.6875 10.6122C15.8643 10.6563 15.9969 10.6563 16.1736 10.6122H17.4993C17.5877 10.6122 17.6319 10.6564 17.6761 10.7005C17.7203 10.7889 17.6761 10.8331 17.6319 10.8773C17.6319 10.8773 17.6319 10.8773 17.5877 10.8773C16.8807 10.8773 16.0853 10.8773 15.3782 10.8773C15.2898 10.8331 15.2456 10.7005 15.2898 10.568C15.2898 10.347 15.3782 10.1261 15.2015 10.0377C15.1131 10.0377 14.9805 10.0377 14.8921 10.0377C14.8037 10.0377 14.7154 9.94931 14.7154 9.86093C14.7154 9.81674 14.7595 9.72835 14.8037 9.68416C14.8479 9.63997 14.8921 9.63998 14.9805 9.63998C15.0689 9.63998 15.2015 9.72835 15.2456 9.5074ZM18.118 9.19808C17.9412 9.19808 17.9412 9.15388 17.9412 9.10969C17.9412 9.0655 17.9412 9.0213 17.9412 9.0213L18.0296 8.71198H18.4273L18.5157 9.0213C18.5157 9.06549 18.5157 9.10969 18.5157 9.15388C18.5157 9.19807 18.5157 9.24225 18.4715 9.24225H18.4273H18.339V9.37483H18.9576V9.24225C18.8692 9.19806 18.7809 9.10968 18.7809 9.0213L18.4273 7.65142H18.118V7.73979L17.8087 9.0213C17.7645 9.19806 17.7203 9.28645 17.6319 9.28645V9.41903H18.1622V9.19808H18.118ZM18.2064 7.96074L18.3831 8.53522H18.0738L18.2064 7.96074ZM19.1344 20.3782C18.9134 20.2014 18.6041 20.0689 18.5157 19.9805C18.4273 19.8037 18.3832 19.627 18.339 19.4502C18.2506 19.2734 18.1622 19.1409 18.0738 19.0083C17.8971 18.7432 17.4552 18.478 17.3226 18.699C17.19 18.9641 17.0133 19.2293 16.7923 19.4502C16.5713 19.627 16.262 19.8037 15.9969 19.8921C14.9363 19.9805 13.8316 19.9805 12.771 19.9363C12.6384 19.8921 12.5942 19.8037 12.5942 19.6712C12.55 18.7432 12.5942 17.8152 12.6826 16.9314C12.8152 16.6662 13.0361 16.4011 13.3013 16.2243C13.6106 15.915 14.0967 15.8266 14.0967 15.6057C13.9641 15.2963 13.699 15.0312 13.3897 14.8986C13.0361 14.7219 12.6384 14.7219 12.5058 14.6335C12.3291 14.4125 12.1523 14.1916 12.0198 13.9264C11.843 13.7055 11.6662 13.5287 11.4453 13.352C11.2243 13.5287 11.0476 13.7055 10.8708 13.9264C10.7382 14.1474 10.5615 14.4125 10.3847 14.6335C10.2521 14.7219 9.85443 14.7219 9.50091 14.8986C9.19158 15.0312 8.92643 15.2963 8.79386 15.6057C8.79386 15.8266 9.32415 15.8708 9.63348 16.1359C9.89862 16.3127 10.1196 16.5337 10.2521 16.843C10.3405 17.771 10.3405 18.699 10.3405 19.5828C10.3405 19.7154 10.2963 19.8037 10.1638 19.8479C9.10319 19.8921 7.99844 19.8921 6.93787 19.8037C6.62854 19.7154 6.3634 19.5386 6.14245 19.3618C5.9215 19.1409 5.74473 18.8757 5.61216 18.6106C5.52378 18.3896 5.08188 18.699 4.86093 18.9199C4.77255 19.0525 4.68417 19.2293 4.59579 19.3618C4.5516 19.5386 4.50741 19.7154 4.41903 19.8921C4.33065 19.9805 4.02131 20.1131 3.80036 20.2898C3.53522 20.5108 3.31427 20.7317 3.1817 21.0411C3.31427 21.262 3.53522 21.483 3.75617 21.6155C3.97712 21.7481 4.46322 21.9691 4.46322 22.0133C4.46322 22.0574 4.59579 22.5435 4.72836 22.7645C4.90512 23.0296 5.12607 23.2948 5.4354 23.4715C5.65635 23.5599 5.78892 23.5599 5.83311 23.4715C5.8773 23.3831 6.09826 22.9854 6.18664 22.7645C6.3634 22.4993 6.62854 22.2342 6.93787 22.0574C7.2472 21.9249 7.60073 21.8807 7.91006 21.8807C8.44034 21.8807 9.89862 21.8807 10.0312 21.8807C10.2079 21.8807 10.3405 22.0132 10.3405 22.19C10.3405 22.411 10.3405 25.6368 10.3405 25.8578C10.3405 26.2555 10.1638 26.6532 9.89862 26.9626C9.58929 27.2719 9.19158 27.537 8.74967 27.6696C8.57291 27.7138 8.74967 27.8905 8.83805 28.0231C9.01481 28.1999 9.19158 28.3766 9.41253 28.5092C9.67767 28.6418 9.94281 28.7302 10.2521 28.8186C10.4731 28.9511 10.6057 29.1279 10.6499 29.393C10.8266 29.7465 11.0918 30.0559 11.4011 30.321C11.7104 30.0559 11.9756 29.7465 12.1523 29.393C12.1965 29.1721 12.3733 28.9511 12.55 28.8186C12.8152 28.7744 13.1245 28.6418 13.3897 28.5092C13.6106 28.3766 13.7874 28.1999 13.9641 28.0231C14.0525 27.8905 14.2293 27.7138 14.0525 27.6696C13.6106 27.537 13.2129 27.3161 12.9036 26.9626C12.6384 26.6532 12.5058 26.2555 12.4617 25.8578C12.4617 25.6368 12.4617 22.411 12.4617 22.19C12.4617 22.0132 12.6384 21.8807 12.771 21.8807C12.9036 21.8807 14.3618 21.8807 14.8921 21.8807C15.2456 21.8807 15.555 21.9249 15.8643 22.0574C16.1736 22.2342 16.3946 22.4551 16.6155 22.7645C16.7481 22.9854 16.9249 23.3831 16.9691 23.4715C17.0133 23.5599 17.1458 23.5157 17.3668 23.4715C17.6319 23.2948 17.8971 23.0738 18.0738 22.7645C18.2064 22.5435 18.2948 22.0574 18.339 22.0133C18.3832 21.9691 18.8251 21.7923 19.046 21.6155C19.267 21.483 19.4879 21.262 19.6205 21.0411C19.4437 20.7759 19.3111 20.555 19.1344 20.3782ZM5.34702 19.5828C5.39121 19.4944 5.47959 19.406 5.56797 19.3176H5.61216H5.65635C5.74474 19.406 5.78893 19.4944 5.87731 19.5828C5.9215 19.7154 5.96569 19.8479 5.96569 20.0247C5.96569 20.2015 5.9215 20.3782 5.87731 20.555C5.83312 20.7317 5.78892 20.8201 5.78892 20.9085C5.74473 20.9969 5.74473 21.1294 5.70054 21.2178C5.70054 21.262 5.70054 21.3504 5.70054 21.3946L5.65635 21.4388L5.61216 21.3946C5.61216 21.3504 5.61216 21.262 5.61216 21.2178C5.61216 21.1294 5.56797 20.9969 5.52378 20.9085C5.52378 20.8201 5.47959 20.7317 5.4354 20.555C5.39121 20.3782 5.34702 20.2015 5.34702 20.0247C5.25864 19.8479 5.30283 19.7154 5.34702 19.5828ZM5.96569 21.5713C6.00988 21.5713 6.05406 21.6155 6.05406 21.6597C6.05406 21.7039 6.00988 21.7481 5.96569 21.7481H5.25864C5.21445 21.7481 5.17026 21.7039 5.17026 21.6597C5.17026 21.6155 5.21445 21.5713 5.25864 21.5713H5.96569ZM4.77255 20.9085C4.72836 20.9085 4.63998 20.9085 4.59579 20.9085C4.5516 20.9527 4.50741 20.9527 4.46322 21.0411C4.41903 21.0853 4.41903 21.1736 4.41903 21.2178C4.37484 21.1736 4.28645 21.1294 4.24226 21.0853C4.19807 21.0411 4.15389 20.9527 4.15389 20.8643C4.15389 20.7759 4.19807 20.6433 4.24226 20.555C4.37484 20.4224 4.50741 20.3782 4.68417 20.3782C4.77255 20.3782 4.90512 20.3782 4.9935 20.4666C5.12607 20.555 5.21445 20.6433 5.30283 20.7759C5.34702 20.8643 5.39121 20.9969 5.39121 21.0853C5.4354 21.1736 5.4354 21.3062 5.39121 21.3946C5.39121 21.4388 5.34702 21.4388 5.30283 21.3946V21.3504C5.30283 21.3062 5.25864 21.262 5.21445 21.2178C5.17026 21.1294 5.08188 21.0411 4.9935 20.9969C4.94931 20.9085 4.86093 20.8643 4.77255 20.9085ZM6.00988 22.2784C5.92149 22.2784 5.83311 22.2784 5.74473 22.19C5.74473 22.2342 5.74473 22.3226 5.74473 22.3668C5.74473 22.411 5.70055 22.4993 5.65635 22.5435H5.61216H5.56797C5.52378 22.4993 5.47959 22.4551 5.47959 22.3668C5.47959 22.3226 5.47959 22.2342 5.47959 22.19C5.39121 22.2342 5.30283 22.2784 5.21445 22.2784C5.12607 22.2784 4.9935 22.19 5.03769 22.19C5.12607 22.1458 5.21445 22.1016 5.30283 22.0574C5.34702 22.0132 5.39121 21.9691 5.39121 21.9249H5.83311C5.8773 21.9691 5.87731 22.0132 5.9215 22.0574C6.00988 22.1016 6.05407 22.19 6.14245 22.19C6.27502 22.19 6.14245 22.2342 6.00988 22.2784ZM7.07044 20.8201C7.07044 20.9085 7.02625 20.9527 6.98206 21.0411C6.93787 21.0853 6.89368 21.1294 6.8053 21.1736C6.8053 21.1294 6.76111 21.0411 6.76111 20.9969C6.71692 20.9527 6.67273 20.9085 6.62854 20.8643C6.58435 20.8643 6.49597 20.8643 6.45178 20.8643C6.3634 20.8643 6.27502 20.9085 6.18664 20.9527C6.09826 20.9969 6.05407 21.0852 5.96569 21.1736C5.9215 21.2178 5.9215 21.262 5.87731 21.3062V21.3504C5.87731 21.3946 5.83311 21.3946 5.78892 21.3504C5.78892 21.262 5.78892 21.1294 5.78892 21.0411C5.83311 20.9527 5.87731 20.8201 5.9215 20.7317C6.00988 20.5992 6.09826 20.4666 6.23083 20.4224C6.31921 20.3782 6.40759 20.334 6.54016 20.334C6.71692 20.334 6.84949 20.4224 6.98206 20.5108C7.02625 20.6433 7.07044 20.7317 7.07044 20.8201ZM12.1081 15.2521C12.1965 15.2079 12.2849 15.1638 12.4175 15.1638C12.5942 15.1638 12.7268 15.2521 12.8594 15.3405C12.9477 15.4289 12.9477 15.5173 12.9477 15.6498C12.9477 15.7382 12.9036 15.7824 12.8594 15.8708C12.8152 15.915 12.771 15.9592 12.6826 16.0034C12.6826 15.9592 12.6384 15.8708 12.6384 15.8266C12.5942 15.7824 12.55 15.7382 12.5058 15.694C12.4617 15.694 12.3733 15.694 12.3291 15.694C12.2407 15.694 12.1523 15.7382 12.0639 15.7824C11.9756 15.8266 11.9314 15.915 11.843 16.0034C11.7988 16.0476 11.7988 16.0917 11.7546 16.1359V16.1801C11.7546 16.2243 11.7104 16.2243 11.6662 16.1801C11.6662 16.0918 11.6662 15.9592 11.6662 15.8708C11.7104 15.7824 11.7104 15.6499 11.7546 15.5615C11.843 15.4731 11.9756 15.3405 12.1081 15.2521ZM11.5778 28.0673C11.5778 28.1115 11.5778 28.1999 11.5778 28.2441C11.5778 28.2883 11.5337 28.2883 11.5337 28.2883C11.4895 28.2883 11.4895 28.2441 11.4895 28.2441C11.4895 28.1999 11.4895 28.1115 11.4895 28.0673C11.4895 27.9789 11.4453 27.8464 11.4453 27.758C11.4453 27.6696 11.4011 27.5812 11.3127 27.4045C11.2685 27.2277 11.2243 27.0509 11.2243 26.8742C11.2243 26.7416 11.2685 26.5648 11.3127 26.4323C11.3569 26.3439 11.4453 26.2555 11.5337 26.1671H11.5778H11.622C11.7104 26.2555 11.7546 26.3439 11.843 26.4323C11.8872 26.5648 11.9314 26.6974 11.9314 26.8742C11.9314 27.0509 11.8872 27.2277 11.843 27.4045C11.7988 27.5812 11.7546 27.6696 11.7546 27.758C11.622 27.8464 11.5778 27.9347 11.5778 28.0673ZM11.843 28.4208C11.8872 28.4208 11.9756 28.4208 11.9756 28.5092C11.9756 28.5534 11.9756 28.6418 11.8872 28.6418H11.843H11.1359C11.0918 28.6418 11.0034 28.6418 11.0034 28.5534C11.0034 28.5092 11.0034 28.4208 11.0918 28.4208H11.1359H11.843ZM11.6662 22.2342C11.6662 22.2784 11.6662 22.3668 11.6662 22.411C11.6662 22.4552 11.622 22.5435 11.5778 22.5877H11.5337H11.4895C11.4453 22.5435 11.4011 22.4993 11.4011 22.411C11.4011 22.3668 11.4011 22.2784 11.4011 22.2342C11.3127 22.2784 11.2243 22.3226 11.1359 22.3226C11.0476 22.3226 10.915 22.2342 10.9592 22.2342C11.0476 22.19 11.1359 22.1458 11.2243 22.1016C11.2685 22.0574 11.3127 22.0132 11.3127 21.9691H11.843C11.8872 22.0132 11.8872 22.0574 11.9314 22.1016C12.0198 22.19 12.1081 22.2342 12.1965 22.2342C12.2407 22.2342 12.1523 22.3226 12.0198 22.3226C11.843 22.3226 11.7546 22.2784 11.6662 22.2342ZM11.843 21.7923H11.1359C11.0918 21.7923 11.0476 21.7481 11.0476 21.7039C11.0476 21.6597 11.0918 21.6155 11.1359 21.6155H11.843C11.8872 21.5713 11.9756 21.6155 11.9756 21.6597C12.0198 21.7039 11.9756 21.7923 11.9314 21.7923C11.9314 21.7923 11.8872 21.7923 11.843 21.7923ZM11.5778 21.2178C11.5778 21.262 11.5778 21.3504 11.5778 21.3946L11.5337 21.4388L11.4895 21.3946C11.4895 21.3504 11.4895 21.262 11.4895 21.2178C11.4895 21.1294 11.4453 20.9969 11.4011 20.9085C11.4011 20.8201 11.3569 20.7317 11.3127 20.555C11.2685 20.3782 11.2243 20.2015 11.2243 20.0247C11.2243 19.8921 11.2685 19.7154 11.3127 19.5828C11.3569 19.4944 11.4453 19.406 11.5337 19.3176H11.5778H11.622C11.7104 19.406 11.7546 19.4944 11.843 19.5828C11.8872 19.7154 11.9314 19.8479 11.9314 20.0247C11.9314 20.2015 11.8872 20.3782 11.843 20.555C11.7988 20.7317 11.7546 20.8201 11.7546 20.9085C11.622 20.9969 11.622 21.0852 11.5778 21.2178ZM11.622 17.0197C11.622 17.0639 11.622 17.1523 11.622 17.1965C11.622 17.2407 11.5778 17.3291 11.5337 17.3733H11.4895H11.4453C11.3569 17.3291 11.3127 17.2407 11.3127 17.1523C11.3127 17.1081 11.3127 17.0197 11.3127 16.9756C11.2243 17.0197 11.1359 17.0639 11.0476 17.0639C10.9592 17.0639 10.8266 16.9756 10.8708 16.9756C10.9592 16.9314 11.0476 16.8872 11.0918 16.843C11.1359 16.7988 11.1801 16.7546 11.1801 16.7104H11.7104C11.7546 16.7546 11.7546 16.7988 11.7988 16.843C11.8872 16.8872 11.9756 16.9756 12.0639 16.9756C12.1081 16.9756 12.0198 17.0639 11.8872 17.0639C11.7988 17.0639 11.7104 17.0639 11.622 17.0197ZM11.0034 16.4895C11.0034 16.4453 11.0476 16.4011 11.1359 16.4011H11.843C11.8872 16.4011 11.9314 16.4453 11.9756 16.4895C11.9756 16.5337 11.9314 16.5778 11.843 16.5778H11.1359C11.0476 16.5778 11.0034 16.5337 11.0034 16.4895C11.0034 16.4895 11.0034 16.4453 11.0034 16.4895ZM11.2243 14.4125C11.2685 14.3241 11.3569 14.2358 11.4453 14.1474H11.4895H11.5337C11.622 14.2358 11.6662 14.3241 11.7546 14.4125C11.7988 14.5451 11.843 14.6777 11.843 14.8544C11.843 15.0312 11.7988 15.208 11.7546 15.3847C11.7104 15.5615 11.6662 15.6498 11.6662 15.7382C11.622 15.8266 11.622 15.9592 11.5778 16.0476C11.5778 16.0918 11.5778 16.1359 11.5778 16.2243C11.5778 16.2685 11.5337 16.2685 11.5337 16.2685L11.4895 16.2243C11.4895 16.1801 11.4895 16.0918 11.4895 16.0476C11.4895 16.0034 11.4895 15.915 11.4011 15.7382C11.3127 15.5615 11.3569 15.5615 11.3127 15.3847C11.2685 15.208 11.2243 15.0312 11.2243 14.8544C11.1801 14.6777 11.2243 14.5451 11.2685 14.4125H11.2243ZM10.2963 15.8708C10.2521 15.915 10.2521 16.0034 10.2521 16.0476C10.2079 16.0034 10.1196 15.9592 10.0754 15.915C10.0312 15.8708 9.987 15.7824 9.987 15.694C9.987 15.6057 10.0312 15.4731 10.0754 15.3847C10.208 15.2963 10.3405 15.2079 10.5173 15.2079C10.6057 15.2079 10.7382 15.2079 10.8266 15.2963C10.9592 15.3847 11.0476 15.4731 11.1359 15.6057C11.1801 15.694 11.2243 15.8266 11.2243 15.915C11.2243 16.0034 11.2243 16.1359 11.2243 16.2243C11.2243 16.2685 11.1801 16.2685 11.1359 16.2243V16.1801C11.1359 16.1359 11.0918 16.0918 11.0476 16.0476C11.0034 15.9592 10.915 15.8708 10.8266 15.8266C10.7382 15.7382 10.6499 15.694 10.5615 15.694C10.5173 15.694 10.4289 15.694 10.3847 15.694C10.3405 15.7382 10.2963 15.7824 10.2521 15.8266L10.2963 15.8708ZM10.2963 21.0411C10.2521 21.0853 10.2521 21.1736 10.2521 21.2178C10.2079 21.1736 10.1196 21.1294 10.0754 21.0853C10.0312 21.0411 9.987 20.9527 9.987 20.8643C9.987 20.7759 10.0312 20.6433 10.0754 20.555C10.208 20.4666 10.3405 20.3782 10.5173 20.3782C10.6057 20.3782 10.7382 20.3782 10.8266 20.4666C10.9592 20.555 11.0476 20.6433 11.1359 20.7759C11.1801 20.8643 11.2243 20.9969 11.2685 21.0853C11.3127 21.1736 11.3127 21.3062 11.2685 21.3946C11.2685 21.4388 11.2243 21.4388 11.1801 21.3946V21.3504C11.1359 21.3062 11.1359 21.262 11.0918 21.2178C11.0476 21.1294 10.9592 21.0411 10.8708 20.9969C10.7382 20.9085 10.6057 20.8643 10.4289 20.9085C10.3847 20.9085 10.3405 20.9527 10.2963 20.9969V21.0411ZM10.6057 27.7138C10.5615 27.7138 10.4731 27.7138 10.4289 27.7138C10.3847 27.758 10.3405 27.758 10.2963 27.8464C10.2521 27.8905 10.2521 27.9789 10.2521 28.0231C10.2079 27.9789 10.1196 27.9347 10.0754 27.8906C10.0312 27.8464 9.987 27.758 9.987 27.6696C9.987 27.5812 10.0312 27.4486 10.0754 27.3603C10.208 27.2277 10.3405 27.1835 10.5173 27.1835C10.6057 27.1835 10.7382 27.2277 10.8266 27.2719C10.9592 27.3603 11.0476 27.4486 11.1359 27.5812C11.1801 27.6696 11.2243 27.8022 11.2243 27.8906C11.2685 27.9789 11.2685 28.1115 11.2243 28.1999C11.2243 28.2441 11.1801 28.2441 11.1359 28.1999V28.1557C11.1359 28.1115 11.0918 28.0673 11.0476 28.0231C11.0034 27.9347 10.915 27.8464 10.8266 27.8022C10.7824 27.758 10.694 27.7138 10.6057 27.7138ZM11.8872 29.1279C11.7988 29.1279 11.7104 29.1279 11.622 29.0395C11.622 29.0837 11.622 29.1721 11.622 29.2163C11.622 29.2604 11.5778 29.3488 11.5337 29.393H11.4895H11.4453C11.4011 29.3488 11.3569 29.3046 11.3569 29.2163C11.3569 29.1721 11.3569 29.0837 11.3569 29.0395C11.2685 29.0837 11.1801 29.1279 11.0918 29.1279C11.0034 29.1279 10.8708 29.0395 10.915 29.0395C11.0034 28.9953 11.0918 28.9511 11.1359 28.9069C11.1801 28.8627 11.2243 28.8185 11.2243 28.7744H11.7546C11.7988 28.8185 11.7988 28.8627 11.843 28.9069C11.9314 28.9511 12.0198 29.0395 12.1081 29.0395C12.1081 29.0395 11.9756 29.1279 11.8872 29.1279ZM12.8152 27.4045C12.9036 27.4928 12.9036 27.5812 12.9036 27.7138C12.9036 27.8022 12.8594 27.8464 12.8152 27.9347C12.771 27.9789 12.7268 28.0231 12.6384 28.0673C12.6384 28.0231 12.5942 27.9347 12.5942 27.8906C12.55 27.8464 12.5058 27.8022 12.4617 27.758C12.4175 27.758 12.3291 27.758 12.2849 27.758C12.1965 27.758 12.1081 27.8022 12.0198 27.8464C11.9314 27.8905 11.8872 27.9789 11.7988 28.0673C11.7546 28.1115 11.7546 28.1557 11.7104 28.1999V28.2441C11.7104 28.2883 11.6662 28.2883 11.622 28.2883C11.622 28.2883 11.5778 28.2883 11.5778 28.2441C11.5337 28.1557 11.5337 28.0231 11.5778 27.9347C11.622 27.8464 11.622 27.7138 11.6662 27.6254C11.7546 27.4928 11.843 27.3603 11.9756 27.3161C12.0639 27.2719 12.1523 27.2277 12.2849 27.2277C12.55 27.2277 12.7268 27.3161 12.8152 27.4045ZM12.9477 20.8201C12.9477 20.9085 12.9036 20.9527 12.8594 21.0411C12.8152 21.0853 12.771 21.1294 12.6826 21.1736C12.6826 21.1294 12.6384 21.0411 12.6384 20.9969C12.5942 20.9527 12.55 20.9085 12.5058 20.8643C12.3733 20.8201 12.1965 20.8201 12.0639 20.9527C11.9756 20.9969 11.9314 21.0852 11.843 21.1736C11.7988 21.2178 11.7988 21.262 11.7546 21.3062V21.3504C11.7546 21.3946 11.7104 21.3946 11.6662 21.3504C11.622 21.262 11.622 21.1294 11.6662 21.0411C11.7104 20.9527 11.7104 20.8201 11.7546 20.7317C11.843 20.5992 11.9314 20.4666 12.0639 20.4224C12.1523 20.3782 12.2407 20.334 12.3733 20.334C12.55 20.334 12.6826 20.4224 12.8152 20.5108C12.9036 20.5992 12.9477 20.7317 12.9477 20.8201ZM17.0574 19.5828C17.1016 19.4944 17.19 19.406 17.2784 19.3176H17.3226H17.3668C17.4552 19.406 17.4993 19.4944 17.5877 19.5828C17.6761 19.7154 17.6761 19.8479 17.6761 20.0247C17.6761 20.2015 17.6319 20.3782 17.5877 20.555C17.5435 20.7317 17.4993 20.8201 17.4993 20.9085C17.4552 20.9969 17.4552 21.1294 17.411 21.2178C17.411 21.262 17.411 21.3504 17.411 21.3946L17.3668 21.4388L17.3226 21.3946C17.3226 21.3504 17.3226 21.262 17.3226 21.2178C17.3226 21.1294 17.2784 20.9969 17.2342 20.9085C17.2342 20.8201 17.19 20.7317 17.1458 20.555C17.1016 20.3782 17.0574 20.2015 17.0574 20.0247C17.0133 19.8479 17.0133 19.7154 17.0574 19.5828ZM17.6761 21.5713C17.7203 21.5713 17.7645 21.6155 17.8087 21.6597C17.8087 21.7039 17.7645 21.7481 17.6761 21.7481H16.9691C16.9249 21.7481 16.8365 21.7039 16.8365 21.6597C16.8365 21.6155 16.8807 21.5713 16.9691 21.5713H17.6761ZM16.483 20.8643C16.4388 20.8643 16.3504 20.8643 16.3062 20.8643C16.262 20.9085 16.2178 20.9085 16.1736 20.9969C16.1294 21.0411 16.1294 21.1294 16.1294 21.1736C16.0853 21.1294 15.9969 21.0853 15.9527 21.0411C15.9085 20.9969 15.9085 20.9085 15.8643 20.8201C15.8643 20.7317 15.9085 20.5992 15.9527 20.5108C16.0853 20.4224 16.2178 20.334 16.3946 20.334C16.483 20.334 16.6155 20.334 16.7039 20.4224C16.8365 20.5108 16.9249 20.5992 17.0133 20.7317C17.0574 20.8201 17.1016 20.9527 17.1016 21.0411C17.1016 21.1294 17.1016 21.262 17.1016 21.3504C17.1016 21.3946 17.0574 21.3946 17.0133 21.3504V21.3062C16.9691 21.1736 16.8365 21.0411 16.7481 20.9527C16.6597 20.8643 16.5714 20.8643 16.483 20.8643ZM17.7645 22.2342C17.6761 22.2342 17.5877 22.2342 17.4993 22.1458C17.4993 22.19 17.4993 22.2784 17.4993 22.3226C17.4993 22.3668 17.4552 22.4551 17.411 22.4993H17.3668H17.3226C17.2784 22.4551 17.2342 22.411 17.2342 22.3226C17.2342 22.2784 17.2342 22.19 17.2342 22.1458C17.1458 22.19 17.0574 22.2342 16.9691 22.2342C16.8807 22.2342 16.7481 22.1458 16.7923 22.1458C16.8807 22.1016 16.9691 22.0574 17.0133 22.0133C17.0574 21.9691 17.1016 21.9249 17.1016 21.8807H17.6319C17.6761 21.9249 17.6761 21.9691 17.7203 22.0133C17.8087 22.1016 17.8529 22.1458 17.9412 22.1458C17.9854 22.19 17.8529 22.2342 17.7645 22.2342ZM18.6925 21.0411C18.6483 21.0853 18.6041 21.1294 18.5157 21.1736C18.5157 21.1294 18.4715 21.0411 18.4715 20.9969C18.4273 20.9527 18.3832 20.9085 18.339 20.8643C18.2064 20.8201 18.0296 20.8643 17.8971 20.9527C17.8087 20.9969 17.7645 21.0852 17.7203 21.1736C17.6761 21.2178 17.6761 21.262 17.6319 21.3062V21.3504C17.6319 21.3946 17.5877 21.3946 17.5435 21.3504C17.5435 21.262 17.5435 21.1294 17.5435 21.0411C17.5877 20.9527 17.5877 20.8201 17.6319 20.7317C17.7203 20.5992 17.8087 20.4666 17.9412 20.4224C18.0296 20.3782 18.118 20.334 18.2506 20.334C18.4273 20.334 18.5599 20.4224 18.6925 20.5108C18.7809 20.5992 18.8251 20.6875 18.7809 20.8201C18.7809 20.9085 18.7809 20.9969 18.6925 21.0411ZM8.30777 9.55159C7.99844 9.5074 7.77748 9.59578 7.82168 9.9493C7.86587 10.1703 7.99844 10.2144 8.30777 10.1703C8.35196 10.1703 8.44034 10.2145 8.44034 10.3028C8.44034 10.5238 8.44034 10.7005 8.44034 10.9215C8.66129 11.0541 8.88224 11.0541 9.14738 11.0099H10.5173C10.6057 11.0099 10.694 11.0099 10.7382 11.0099C10.7824 11.0541 10.8266 11.0983 10.8708 11.1424C11.0034 11.1866 11.1359 11.1866 11.2685 11.1424H11.3127C11.4453 11.0983 11.5778 11.0541 11.7104 11.0983H13.0361C13.2129 11.1424 13.3896 11.0982 13.5222 11.0541C13.5664 10.8331 13.5664 10.6563 13.5222 10.4354C13.5222 10.3912 13.5664 10.3028 13.6106 10.3028C13.699 10.3028 13.7432 10.3028 13.8316 10.3028C14.2735 10.3028 14.2293 9.90511 14.0083 9.72835C13.7874 9.55159 13.5664 9.77254 13.5222 9.55159V8.31427C13.478 8.1817 13.478 8.04912 13.5222 7.96074C13.8316 7.96074 14.0083 7.96074 14.0967 7.73979C14.1409 7.56303 14.0525 7.38627 13.8757 7.29789H13.8316C13.7432 7.29789 13.7432 7.29789 13.6106 7.29789C13.5222 7.29789 13.5222 7.29788 13.5222 7.25369V7.20951C13.5664 7.03275 13.5222 6.81179 13.478 6.63503C13.2129 6.54665 12.9477 6.54665 12.7268 6.59084C12.6384 6.45827 12.5058 6.54665 12.3291 6.59084C12.1081 6.59084 11.9314 6.59084 11.7104 6.59084C11.5337 6.59084 11.3569 6.63504 11.1801 6.72342C11.0918 6.72342 11.0476 6.7676 11.0034 6.81179C10.8708 6.72341 10.7824 6.63503 10.6057 6.59084C10.2963 6.59084 9.987 6.59084 9.67767 6.59084C9.5451 6.54665 9.41253 6.54666 9.27995 6.50247C9.23577 6.54666 9.19157 6.54665 9.14738 6.59084C9.059 6.59084 8.97062 6.59084 8.88224 6.59084H8.79386C8.70548 6.59084 8.57291 6.59084 8.48453 6.59084C8.26358 6.67922 8.52872 7.20951 8.30777 7.34208C7.99844 7.34208 7.82168 7.34208 7.77749 7.60722C7.68911 8.00494 8.04263 8.00493 8.35196 8.00493C8.35196 8.22588 8.35196 8.49103 8.35196 8.75617C8.44034 8.97712 8.39615 9.28645 8.30777 9.55159ZM10.7382 10.4796H10.694C10.1638 10.4354 9.76605 10.5238 9.19158 10.4796C9.05901 10.3028 9.32415 10.1261 9.45672 10.1261C9.85443 10.1702 10.208 10.2144 10.6057 10.1703C10.694 10.1703 10.7824 10.2144 10.8708 10.2586C10.915 10.3912 10.7824 10.3912 10.7382 10.4796ZM13.0361 6.72342C13.1245 6.59085 13.3013 6.59084 13.4338 6.67922L13.478 6.72342C13.5664 6.85599 13.3896 7.2537 13.5664 7.34208C13.6106 7.34208 13.699 7.34208 13.7432 7.34208H13.8757C13.9199 7.34208 13.9641 7.34208 14.0083 7.38627C14.0967 7.43046 14.0967 7.56304 14.0525 7.65142C14.0083 7.69561 13.9641 7.73979 13.9199 7.73979C13.7874 7.73979 13.7432 7.73979 13.6548 7.73979C13.5664 7.73979 13.478 8.00493 13.478 8.22588C13.478 8.44684 13.4338 9.15388 13.478 9.5074C13.478 9.72835 13.7432 9.59579 13.9199 9.63998C14.0083 9.68417 14.0525 9.72835 14.0525 9.77254C14.1409 10.2144 13.5222 9.86092 13.4338 10.1261C13.3455 10.3912 13.478 10.5238 13.4338 10.7005C13.3897 10.7889 13.3013 10.8773 13.2129 10.8331H12.4617H12.1523C11.9314 10.8331 11.843 10.8331 11.5778 10.8331C11.4895 10.7889 11.4895 10.7005 11.4895 10.6563C11.4895 10.6122 11.5337 10.568 11.5778 10.568C11.7546 10.568 11.9314 10.568 12.1081 10.568C12.3291 10.568 12.3733 10.568 12.5942 10.568C12.771 10.6122 12.9919 10.568 13.1245 10.4796C13.1245 9.86093 13.1245 9.5074 13.1245 8.88874V7.47464C13.1245 7.29788 13.1245 7.16532 13.1245 6.98856C13.1245 6.90018 13.0803 6.8118 13.0361 6.72342C12.9919 6.72342 12.9919 6.67923 13.0361 6.72342ZM12.771 6.85598C12.771 6.81179 12.771 6.8118 12.8152 6.76761C12.8594 6.76761 12.9036 6.81179 12.9477 6.85598C12.9919 6.90017 13.0361 6.98855 13.0803 7.03274C13.1245 7.25369 13.0803 7.65142 13.0803 7.87237C13.0803 7.96075 13.0803 8.00494 13.0803 8.09332C13.0803 8.13751 13.0803 8.22589 13.0803 8.27008C13.1245 8.88874 13.0803 10.1261 13.0803 10.2586C13.0803 10.3912 13.0803 10.347 13.0361 10.3028C12.9477 10.1703 12.8594 10.0377 12.8152 9.90511C12.771 8.5794 12.771 8.04912 12.771 6.85598ZM12.8152 10.3028C12.8594 10.347 12.9036 10.3912 12.9036 10.4354C12.9036 10.568 12.5942 10.5238 12.4617 10.5238C11.9756 10.5238 11.9314 10.5238 11.4011 10.5238C11.3127 10.4354 11.3127 10.347 11.4011 10.2586C11.5337 10.0819 12.1965 10.2586 12.6384 10.1261C12.7268 10.1261 12.8152 10.2145 12.8152 10.3028ZM11.1359 8.53522C11.1359 8.13751 11.1359 7.82818 11.1359 7.43046C11.1359 7.29789 11.1359 7.12113 11.1359 6.94437C11.1359 6.85599 11.1801 6.76761 11.1801 6.72342C11.2685 6.63504 11.4011 6.59085 11.4895 6.54666C11.7546 6.50247 11.9756 6.54666 12.2849 6.54666C12.3291 6.54666 12.4175 6.54666 12.4617 6.54666C12.55 6.54666 12.5942 6.63504 12.6384 6.72342C12.6384 7.6956 12.6384 8.84455 12.6384 9.63998C12.6384 9.77255 12.6384 9.86092 12.6384 9.99349C12.5058 10.0819 12.3291 10.1261 12.1965 10.0819C12.0639 10.0819 11.9756 10.0819 11.843 10.0819C11.7104 10.0819 11.622 10.0819 11.4895 10.0819C11.4453 10.0819 11.3569 10.1261 11.3127 10.1703C11.2685 10.2144 11.2243 10.2144 11.1359 10.2144C11.0918 10.0819 11.0918 9.90511 11.1359 9.77254C11.1359 9.33064 11.1359 8.80036 11.1359 8.53522ZM11.3127 10.6122C11.3569 10.6563 11.3569 10.7005 11.3569 10.7889C11.3569 10.8773 11.3127 10.9657 11.2685 11.0099C11.2243 11.0541 11.1801 11.0983 11.1359 11.0983C11.0918 11.0983 11.0476 11.0983 10.9592 11.0983C10.915 11.0983 10.8708 11.0541 10.8266 11.0099C10.7824 10.9657 10.7382 10.9215 10.7382 10.8773C10.7382 10.8331 10.7382 10.7889 10.7382 10.7447C10.7382 10.6122 10.7824 10.5238 10.915 10.4796C11.0476 10.3912 11.1801 10.4354 11.2685 10.568C11.3127 10.568 11.3127 10.6122 11.3127 10.6122ZM9.36833 9.59578C9.36833 8.80036 9.36833 7.91655 9.36833 7.03274C9.36833 6.90017 9.36833 6.8118 9.36833 6.67922C9.41253 6.63503 9.50091 6.59084 9.58929 6.59084C9.63348 6.59084 9.72186 6.59084 9.81024 6.59084H9.89862C10.0312 6.59084 10.1638 6.63503 10.3405 6.63503C10.3847 6.63503 10.4289 6.63503 10.5173 6.59084C10.7382 6.59084 10.9592 6.67922 11.0918 6.85598C11.0918 7.6956 11.0918 8.53522 11.0918 9.19808H11.0476C11.0034 9.19808 11.0034 9.15388 10.9592 9.10969C10.915 9.02131 10.8708 8.93293 10.8266 8.84454L10.7824 8.75617C10.7382 8.66779 10.694 8.57941 10.6499 8.49103C10.8266 8.40265 10.915 8.22589 10.915 8.04913C10.915 7.87236 10.8708 7.6956 10.694 7.60722C10.5615 7.56303 10.4289 7.51884 10.3405 7.51884C10.1638 7.51884 10.0312 7.51884 9.85443 7.56303H9.81024V7.6956H9.85443C9.94281 7.6956 9.987 7.6956 9.987 7.91655V8.93293C9.987 9.15388 9.987 9.15388 9.85443 9.15388H9.81024V9.28645H10.4731V9.19808H10.4289C10.3405 9.19808 10.2963 9.19808 10.2963 8.97712V8.62359H10.4289C10.4731 8.71197 10.5173 8.80036 10.5615 8.88874L10.6499 9.0213C10.694 9.15387 10.7382 9.24226 10.8708 9.33064C10.9592 9.37483 11.0476 9.41903 11.1801 9.41903H11.2685C11.3127 9.68417 11.2685 9.9493 11.2243 10.2144C11.0918 10.1703 10.9592 10.1703 10.8708 10.0819C10.5615 10.0377 10.1638 10.1261 9.89862 10.0819C9.81024 10.0819 9.72186 10.0377 9.63348 9.99349C9.36834 9.86092 9.36833 9.72836 9.36833 9.59578ZM10.5173 8.09332C10.5615 8.27008 10.4731 8.44684 10.2963 8.49103C10.2521 8.49103 10.208 8.49103 10.1638 8.49103V7.73979H10.208C10.3847 7.73979 10.5173 7.87236 10.5173 8.04913V8.09332ZM9.14738 6.72342C9.19157 6.72342 9.23577 6.72342 9.23577 6.76761V9.0655C9.27996 9.37483 9.23576 9.72836 9.14738 10.0377C9.10319 10.1261 9.01481 10.2144 8.92643 10.2144C8.88224 9.46321 8.92643 8.75617 8.92643 8.22588C8.92643 8.1375 8.92643 8.04912 8.92643 7.91655C8.92643 7.91655 8.92643 7.82817 8.92643 7.78398C8.92643 7.78398 8.92643 7.69561 8.92643 7.65142C8.92643 7.51885 8.92643 7.38627 8.92643 7.29789C8.92643 7.07693 8.97062 6.85599 9.14738 6.72342ZM8.52872 9.5074C8.52872 9.37483 8.52872 9.24226 8.52872 9.10969C8.52872 8.97712 8.52872 8.84455 8.52872 8.71198C8.57291 8.40265 8.52872 8.09331 8.48453 7.78398C8.35196 7.65141 8.08682 7.87237 7.95425 7.65142C7.91006 7.51885 7.95425 7.38627 8.08682 7.34208C8.08682 7.34208 8.13101 7.34208 8.1752 7.34208C8.35196 7.29789 8.48453 7.43045 8.52872 7.25369C8.52872 7.07693 8.52872 6.94437 8.52872 6.76761C8.52872 6.67923 8.57291 6.63503 8.66129 6.63503C8.79386 6.59084 8.92643 6.63504 9.01481 6.72342C9.01481 6.72342 9.01482 6.81179 8.97062 6.85598C8.92643 6.90017 8.92643 6.94437 8.88224 6.94437C8.83805 7.20951 8.83805 7.47464 8.88224 7.6956C8.88224 8.22588 8.88224 8.5794 8.88224 9.0213V9.19808C8.88224 9.28646 8.88224 9.33065 8.88224 9.41903C8.88224 9.46322 8.88224 9.5074 8.88224 9.55159C8.88224 9.63997 8.88224 9.68416 8.88224 9.77254C8.88224 9.86092 8.88224 9.86093 8.88224 9.86093C8.88224 10.0819 8.79386 10.568 8.97062 10.6122C9.14739 10.6563 9.27996 10.6563 9.45672 10.6122H10.5173C10.6057 10.6122 10.6499 10.6564 10.694 10.7005C10.7382 10.7889 10.694 10.8331 10.6499 10.8773C10.6499 10.8773 10.6499 10.8773 10.6057 10.8773C9.89862 10.8773 9.41253 10.8773 8.70548 10.8773C8.6171 10.8331 8.6171 10.7005 8.6171 10.6122C8.6171 10.3912 8.70548 10.1703 8.52872 10.0819C8.44034 10.0819 8.30777 10.0819 8.21939 10.0819C8.13101 10.0819 8.04263 9.99349 8.04263 9.90511C8.04263 9.81673 8.08682 9.77254 8.13101 9.72835C8.1752 9.68416 8.21939 9.68416 8.30777 9.68416C8.35196 9.63997 8.52872 9.72835 8.52872 9.5074ZM12.1965 9.33064H11.622V9.24225C11.7104 9.24225 11.7546 9.24225 11.7546 9.0213V8.00493C11.7546 7.82817 11.7546 7.78398 11.622 7.78398V7.65142H12.1965V7.78398C12.1081 7.78398 12.0639 7.78398 12.0639 8.00493V9.0213C12.0639 9.24225 12.0639 9.24225 12.1965 9.24225V9.37483V9.33064Z" fill="#030404"/>
<path d="M44.8659 18.0361V12.7333H41.0213V18.0361H37.8838V5.04419H41.0213V9.94932H44.8659V5.04419H48.0034V18.0361H44.8659ZM58.2997 18.0361L57.8136 16.0476H54.0574L53.5714 18.0361H50.1245L54.0133 5.04419H57.8136L61.7024 18.0361H58.2997ZM55.9576 8.31427L54.6761 13.3078H57.195L55.9576 8.31427ZM69.5682 18.0361L67.8006 13.5729H66.6075V18.0361H63.47V5.04419H68.7728C70.9823 4.95581 72.8825 6.67924 72.9709 8.88875C72.9709 9.02132 72.9709 9.15389 72.9709 9.24227C72.9709 11.4518 71.8219 12.5565 70.8497 12.9984L73.0593 18.0361H69.5682ZM69.7892 9.33065C69.8776 8.57942 69.3031 7.91655 68.5519 7.82817C68.4635 7.82817 68.4193 7.82817 68.3309 7.82817H66.6517V10.8773H68.3309C69.0821 10.9215 69.745 10.347 69.7892 9.59579C69.7892 9.46321 69.7892 9.37484 69.7892 9.33065ZM78.0969 18.0361L74.2524 5.04419H77.655L80.0413 14.3241L82.3834 5.04419H85.7419L81.8531 18.0361H78.0969ZM93.3426 18.0361L92.8565 16.0476H89.1003L88.6142 18.0361H85.2116L89.0561 5H92.8565L96.7452 17.9919L93.3426 18.0361ZM90.9563 8.31427L89.719 13.3078H92.2378L90.9563 8.31427ZM104.611 18.0361L102.843 13.5729H101.65V18.0361H98.5129V5.04419H103.816C106.025 4.95581 107.925 6.67924 108.014 8.88875C108.014 9.02132 108.014 9.15389 108.014 9.24227C108.014 11.4518 106.865 12.5565 105.893 12.9984L108.102 18.0361H104.611ZM104.788 9.33065C104.876 8.57942 104.302 7.91655 103.551 7.82817C103.462 7.82817 103.418 7.82817 103.33 7.82817H101.65V10.8773H103.33C104.081 10.9215 104.744 10.347 104.788 9.59579C104.788 9.46321 104.788 9.37484 104.788 9.33065ZM110.577 18.0361V5.04419H115.128C118.885 5.04419 121.05 7.69561 121.05 11.5402C121.05 15.3847 118.929 18.0361 115.173 18.0361H110.577ZM117.824 11.5402C117.824 9.1097 116.896 7.78399 115.128 7.78399H113.714V15.2963H115.128C116.808 15.2963 117.824 13.8381 117.824 11.5402ZM37 31.4258L37.707 30.2768C38.1489 30.7629 38.8118 31.0723 39.4747 31.0723C39.9607 31.1606 40.4027 30.8513 40.4468 30.3652C40.4468 30.321 40.4468 30.2768 40.4468 30.2768C40.4468 28.9953 37.221 29.4372 37.221 27.0068C37.2651 25.8136 38.2373 24.8414 39.4305 24.8856C39.4747 24.8856 39.5188 24.8856 39.6072 24.8856C40.4026 24.8856 41.1981 25.1508 41.8167 25.6811L41.1097 26.7858C40.712 26.3881 40.1375 26.1671 39.563 26.1671C39.1653 26.1229 38.7676 26.3881 38.6792 26.83C38.6792 26.8742 38.6792 26.8742 38.6792 26.9184C38.6792 28.0673 41.9051 27.7138 41.9051 30.1443C41.9051 31.4258 41.0655 32.3538 39.4305 32.3538C38.5467 32.398 37.6629 32.0445 37 31.4258ZM42.7889 28.5976C42.7889 26.3881 43.9821 24.8414 45.8822 24.8414C46.987 24.8414 47.9592 25.5485 48.3127 26.5649L47.1196 27.0951C46.987 26.5207 46.5009 26.1671 45.9264 26.123C44.9101 26.123 44.3356 27.1393 44.3356 28.5976C44.3356 30.0117 44.9542 31.0723 45.9264 31.0723C46.5009 31.0281 47.0312 30.5862 47.1638 30.0117L48.3569 30.542C48.0476 31.6025 47.0312 32.3538 45.9264 32.3538C43.9821 32.3538 42.7889 30.8071 42.7889 28.5976ZM53.3946 32.2212V29.1279H50.9641V32.2212H49.5058V25.0182H50.9641V27.8906H53.3946V25.0182H54.8529V32.2654L53.3946 32.2212ZM56.2228 28.5976C56.2228 26.4323 57.3717 24.8414 59.2719 24.8414C61.1721 24.8414 62.321 26.4323 62.321 28.5976C62.321 30.7629 61.1721 32.3538 59.2719 32.3538C57.3717 32.3538 56.2228 30.7629 56.2228 28.5976ZM60.8186 28.5976C60.8186 27.2277 60.2883 26.123 59.2719 26.123C58.2555 26.123 57.7694 27.1835 57.7694 28.5976C57.7694 30.0117 58.2997 31.0723 59.3161 31.0723C60.3325 31.0723 60.8186 30.0117 60.8186 28.5976ZM63.6025 28.5976C63.6025 26.4323 64.7515 24.8414 66.6517 24.8414C68.5518 24.8414 69.7008 26.4323 69.7008 28.5976C69.7008 30.7629 68.5518 32.3538 66.6517 32.3538C64.7515 32.3538 63.6025 30.7629 63.6025 28.5976ZM68.1983 28.5976C68.1983 27.2277 67.668 26.123 66.6517 26.123C65.6353 26.123 65.105 27.1835 65.105 28.5976C65.105 30.0117 65.6353 31.0723 66.6517 31.0723C67.668 31.0723 68.1983 30.0117 68.1983 28.5976ZM71.2475 32.2212V25.0182H72.7057V30.9839H75.1362V32.2654L71.2475 32.2212ZM79.2459 28.5976C79.2459 26.4323 80.3948 24.8414 82.295 24.8414C84.1952 24.8414 85.3442 26.4323 85.3442 28.5976C85.3442 30.7629 84.1952 32.3538 82.295 32.3538C80.3948 32.3538 79.2459 30.7629 79.2459 28.5976ZM83.8417 28.5976C83.8417 27.2277 83.3114 26.123 82.295 26.123C81.2786 26.123 80.7484 27.1835 80.7484 28.5976C80.7484 30.0117 81.2786 31.0723 82.295 31.0723C83.3114 31.0723 83.8417 30.0117 83.8417 28.5976ZM86.8908 32.2212V25.0182H91.0447V26.2997H88.3491V27.9347H90.9563V29.1279H88.3491V32.177L86.8908 32.2212ZM95.5079 32.2212V25.0182H98.1593C99.4408 25.1066 100.413 26.1671 100.325 27.4487C100.28 28.6418 99.3083 29.5698 98.1593 29.614H96.9662V32.2212H95.5079ZM98.9548 27.3161C98.9989 26.7858 98.6454 26.3439 98.1151 26.2997C98.0709 26.2997 98.0268 26.2997 97.9826 26.2997H96.922V28.3766H97.9826C98.5129 28.3766 98.9106 27.9789 98.9106 27.4487C98.9548 27.3603 98.9548 27.3161 98.9548 27.3161ZM101.915 29.7024V25.0182H103.374V29.7465C103.285 30.4094 103.771 31.0281 104.434 31.1165C105.097 31.2048 105.716 30.7187 105.804 30.0559C105.804 29.9675 105.804 29.8349 105.804 29.7465V25.0182H107.263V29.7465C107.263 31.2048 106.025 32.398 104.567 32.398C103.109 32.398 101.915 31.2048 101.915 29.7024ZM108.942 32.2212V25.0182H111.947C112.919 24.9298 113.758 25.6369 113.847 26.609C113.847 26.6974 113.847 26.7858 113.847 26.8742C113.891 27.6254 113.405 28.3325 112.654 28.5534C113.449 28.7744 113.979 29.4814 113.935 30.321C114.024 31.2932 113.317 32.177 112.3 32.2654C112.212 32.2654 112.079 32.2654 111.991 32.2654L108.942 32.2212ZM112.389 27.0951C112.433 26.6974 112.168 26.3439 111.726 26.2997C111.682 26.2997 111.637 26.2997 111.593 26.2997H110.4V27.9347H111.593C111.991 27.9789 112.344 27.6696 112.389 27.2719C112.389 27.1835 112.389 27.1393 112.389 27.0951ZM112.477 30.0559C112.521 29.614 112.212 29.2163 111.726 29.1721C111.682 29.1721 111.637 29.1721 111.593 29.1721H110.312V30.9397H111.593C112.035 30.9839 112.389 30.6745 112.433 30.2326C112.521 30.1885 112.521 30.1443 112.477 30.0559ZM115.57 32.2212V25.0182H117.029V30.9839H119.459V32.2654L115.57 32.2212ZM120.962 32.2212V25.0182H122.42V32.2654L120.962 32.2212ZM124.011 28.5976C124.011 26.3881 125.204 24.8414 127.104 24.8414C128.209 24.8414 129.181 25.5485 129.534 26.5649L128.341 27.0951C128.209 26.5207 127.723 26.1671 127.148 26.123C126.132 26.123 125.557 27.1393 125.557 28.5976C125.557 30.0117 126.176 31.0723 127.148 31.0723C127.723 31.0281 128.253 30.5862 128.385 30.0117L129.579 30.542C129.269 31.6025 128.253 32.3538 127.148 32.3538C125.204 32.3538 124.011 30.8071 124.011 28.5976ZM137.798 32.2212V29.1279H135.368V32.2212H133.909V25.0182H135.368V27.8906H137.798V25.0182H139.256V32.2654L137.798 32.2212ZM140.98 32.2212V25.0182H145.134V26.2997H142.438V27.9347H145.045V29.1279H142.438V30.8955H145.134V32.177L140.98 32.2212ZM150.923 32.2212L150.569 30.9397H148.315L147.962 32.2212H146.371L148.536 24.974H150.304L152.469 32.2212H150.923ZM149.42 26.5207L148.58 29.6582H150.26L149.42 26.5207ZM153.751 32.2212V25.0182H155.209V30.9839H157.639V32.2654L153.751 32.2212ZM159.628 32.2212V26.2555H157.993V25.0182H162.677V26.2997H161.042V32.2654L159.628 32.2212ZM168.113 32.2212V29.1279H165.682V32.2212H164.224V25.0182H165.682V27.8906H168.113V25.0182H169.571V32.2654L168.113 32.2212Z" fill="#030404"/>
</svg>
