<svg width="118" height="42" viewBox="0 0 118 42" fill="none" xmlns="http://www.w3.org/2000/svg">
<path d="M11.4783 38.3686C11.4783 38.7624 11.2117 39.1921 10.6786 39.6576C10.2521 40.0157 9.80783 40.3022 9.34578 40.4991C8.95482 40.6603 8.58163 40.7498 8.26175 40.7498C7.9241 40.7498 7.63976 40.6424 7.46205 40.4454C7.31988 40.3022 7.24879 40.1769 7.24879 40.0873C7.24879 39.9978 7.31988 39.8904 7.44428 39.7651C7.58645 39.6397 7.65753 39.5144 7.65753 39.4249V39.2817V39.1921V39.1026C7.65753 37.4197 7.53313 36.4707 7.28434 36.2201C7.08886 36.0231 7 35.8262 7 35.5935C7 35.3965 7.08886 35.2354 7.26657 35.11C7.7997 34.7162 8.33283 34.5192 8.88373 34.5192C9.32801 34.5192 9.79006 34.6445 10.2877 34.8773C10.572 35.0205 10.6964 35.2354 10.6964 35.5397C10.6964 35.9336 10.4654 36.3454 10.0211 36.7572C10.5009 36.99 10.8208 37.1869 11.0163 37.3659C11.3184 37.6345 11.4783 37.9747 11.4783 38.3686ZM9.54127 35.7546C9.3991 35.683 9.2747 35.6472 9.16807 35.6472C9.06145 35.6472 8.95482 35.6651 8.84819 35.7009C8.65271 35.7546 8.56386 35.7725 8.54608 35.7725C8.51054 35.7725 8.51054 35.7904 8.51054 35.8083C8.51054 35.9157 8.52831 36.041 8.54608 36.1843C8.58163 36.3633 8.5994 36.4886 8.5994 36.5424V36.4707C8.5994 36.4349 8.63494 36.417 8.68825 36.3633C8.75934 36.3275 8.81265 36.2917 8.86596 36.2559C9.18584 36.1306 9.3991 35.9515 9.54127 35.7546ZM10.2877 38.4044C10.2877 38.3507 10.2521 38.279 10.181 38.2253C9.80783 37.9031 9.36355 37.7419 8.86596 37.7419C8.83042 37.7419 8.81265 37.7598 8.81265 37.7777V38.0821C8.79488 38.4223 8.79488 38.6729 8.79488 38.7983C8.79488 39.0131 8.79488 39.2279 8.81265 39.4428C9.45241 39.1742 9.91446 38.9057 10.181 38.6192C10.2521 38.5476 10.2877 38.476 10.2877 38.4044ZM16.2232 36.2738C16.2232 36.8288 16.081 37.4734 15.8145 38.2074C15.5657 38.8699 15.2636 39.4607 14.9259 39.9978C14.7304 40.3022 14.5172 40.4454 14.2684 40.4454C14.0373 40.4454 13.7175 40.3201 13.3087 40.0515C12.9533 39.8188 12.6512 39.4607 12.4202 38.9773C12.2069 38.5297 12.0825 38.0642 12.0648 37.5987V37.0974C12.0648 36.8109 12.0825 36.3633 12.1358 35.7188C12.1536 35.5755 12.1714 35.3607 12.1892 35.0921C12.2069 34.8057 12.3846 34.6624 12.6867 34.6624C13.0066 34.6624 13.2377 34.7699 13.362 35.0026C13.4864 35.2533 13.5575 35.4681 13.5575 35.6651C13.5575 35.8083 13.5042 35.9694 13.3976 36.1306C13.291 36.2917 13.2377 36.6498 13.2377 37.1869C13.2377 37.5092 13.291 37.7956 13.3798 38.0284C13.6642 38.7983 13.913 39.1742 14.0907 39.1742C14.2151 39.1742 14.4461 38.8341 14.7482 38.1716C14.997 37.6166 15.1214 37.1332 15.1214 36.6677C15.1214 36.4349 15.0858 36.1306 15.0148 35.7725C14.997 35.7188 14.997 35.6651 14.997 35.6293C14.997 35.486 15.0503 35.3607 15.1569 35.2712C15.2636 35.1817 15.388 35.1459 15.5301 35.1459C15.9922 35.1459 16.2232 35.5218 16.2232 36.2738ZM21.5012 39.9083C21.5012 40.0873 21.4301 40.2485 21.2702 40.4096C21.1102 40.5707 20.9503 40.6424 20.7726 40.6424C20.6837 40.6424 20.5949 40.6066 20.506 40.5528C20.4172 40.4812 20.2039 40.3201 19.8663 40.0515C19.5286 39.7472 18.9777 39.2996 18.2669 38.7266V39.5144C18.2669 39.8188 18.2313 40.0515 18.178 40.1769C18.0892 40.3917 17.9114 40.4991 17.6449 40.4991C17.4316 40.4991 17.2717 40.4275 17.1473 40.2843C17.0229 40.141 16.9518 39.962 16.9518 39.7472C16.9518 39.6039 16.9873 39.407 17.0762 39.1563C17.1117 39.0668 17.1117 38.9057 17.1117 38.655C17.1117 37.6345 17.0407 36.8646 16.8985 36.3812C16.8096 36.1306 16.7741 35.9336 16.7741 35.8083C16.7741 35.5935 16.8452 35.4144 16.9873 35.2533C17.2184 35.0026 17.4849 34.8236 17.787 34.7341C18.0358 34.6445 18.3557 34.6087 18.7467 34.6087C19.422 34.6087 20.0795 34.8594 20.7193 35.3428C20.9325 35.5039 21.0392 35.7188 21.0392 35.9873C21.0392 36.2201 20.9681 36.4528 20.8437 36.6856C20.6837 36.9721 20.4527 37.2048 20.1684 37.4017C19.884 37.5808 19.6175 37.7419 19.3331 37.921L20.666 39.0131C20.8081 39.1205 21.0392 39.3175 21.3235 39.5502C21.4479 39.6576 21.5012 39.7651 21.5012 39.9083ZM19.8485 36.2738C19.8485 36.1485 19.653 36.041 19.2443 35.9694C18.9599 35.9157 18.6934 35.8978 18.4268 35.8978C18.2846 35.8978 18.2136 35.9336 18.2136 35.9873C18.2136 36.0769 18.2313 36.4349 18.2846 37.0795C18.9599 36.9721 19.4575 36.7393 19.7952 36.417C19.8307 36.3454 19.8485 36.3096 19.8485 36.2738ZM27.1524 38.3507C27.1524 38.6371 27.0636 38.8878 26.8858 39.1205C26.2461 39.9799 25.4819 40.4275 24.5756 40.4275C23.9003 40.4275 23.2961 40.2485 22.7274 39.8725C22.0877 39.4607 21.7678 38.9236 21.7678 38.279C21.7678 37.6345 22.0521 36.9541 22.6208 36.238C23.1184 35.6114 23.687 35.11 24.3268 34.752C24.7889 34.4834 25.1976 34.3581 25.553 34.3581C25.944 34.3581 26.2283 34.5192 26.406 34.8415C26.4593 34.9489 26.4949 35.0563 26.4949 35.1638C26.4949 35.3249 26.4238 35.4681 26.2816 35.5935C26.1395 35.7188 25.9795 35.7725 25.8196 35.7725C25.6063 35.7725 25.4819 35.683 25.4464 35.486V35.5039C25.0021 35.6651 24.6289 35.8441 24.3446 36.041C24.0425 36.2559 23.7404 36.5245 23.4383 36.8825C23.1184 37.2764 22.9584 37.6524 22.9584 38.0284C22.9584 38.4044 23.1006 38.7087 23.3672 38.9594C23.6515 39.21 23.9714 39.3354 24.3446 39.3354C24.8422 39.3354 25.322 39.1742 25.7663 38.8341C25.8196 38.7803 25.9084 38.7087 26.0328 38.6013C26.0506 38.5834 26.1039 38.5655 26.1572 38.5476C26.0861 38.476 25.8729 38.4402 25.5352 38.4402C25.4642 38.4402 25.3753 38.4402 25.2331 38.4581C25.1087 38.476 25.0021 38.476 24.931 38.476C24.7533 38.476 24.6111 38.4223 24.4867 38.2969C24.3623 38.1895 24.309 38.0284 24.309 37.8673C24.309 37.4913 24.6111 37.2943 25.2154 37.2943C25.6241 37.2943 25.9084 37.3122 26.0861 37.3301C26.3705 37.3838 26.6193 37.5092 26.8325 37.6703C27.0458 37.8314 27.1524 38.0642 27.1524 38.3507ZM32.2172 39.6218C32.2172 39.8546 32.1105 39.9978 31.8973 40.0694C30.6889 40.4991 29.6404 40.7319 28.734 40.7498H28.6807C28.503 40.7498 28.3431 40.6961 28.2187 40.5886C28.0943 40.4812 28.0232 40.338 28.0232 40.159C28.0232 39.9262 28.041 39.586 28.0765 39.1384C28.112 38.6908 28.1298 38.3507 28.1298 38.1179C28.1298 37.9389 28.1298 37.7598 28.112 37.5629C28.1298 37.5629 28.1476 37.545 28.1654 37.5271C27.6855 37.4376 27.4545 37.2585 27.4545 36.9721C27.4545 36.8109 27.5256 36.6498 27.6855 36.4886C27.8099 36.3633 27.9699 36.2559 28.1476 36.1843H28.112V36.041V35.8978C27.7211 35.7546 27.5256 35.5397 27.5256 35.2533C27.5256 35.0742 27.6322 34.8057 27.8277 34.4476C28.0054 34.1432 28.2009 34 28.4142 34C28.5208 34 28.663 34.0358 28.8229 34.1253C28.9828 34.2148 29.1072 34.2507 29.1783 34.2507C29.2849 34.2507 29.4271 34.2507 29.6226 34.2328C29.8181 34.2148 29.978 34.2148 30.0846 34.2148C30.4401 34.2148 30.7955 34.2328 31.1331 34.2507C31.5241 34.2686 31.7196 34.4655 31.7196 34.8236C31.7196 35.0205 31.6485 35.1638 31.5241 35.2712C31.3997 35.3786 31.2398 35.4323 31.0443 35.4323H30.5822C30.3867 35.4323 30.2446 35.4144 30.138 35.4144C29.9958 35.4144 29.6937 35.4502 29.2672 35.5218V36.0948C29.9425 36.1306 30.3334 36.1664 30.4223 36.1664C30.831 36.2201 31.2042 36.3275 31.5419 36.4886C31.7907 36.5961 31.8973 36.7572 31.8973 36.9541C31.8973 37.1153 31.8262 37.2406 31.6663 37.3122C31.5419 37.3838 31.3997 37.4197 31.2398 37.4197C31.2931 37.4197 31.0976 37.4017 30.6711 37.3659C30.2446 37.3301 29.7825 37.3122 29.2494 37.3122C29.1961 37.8672 29.1783 38.3686 29.1783 38.7983C29.1783 38.9415 29.1783 39.0668 29.1961 39.1563C29.2139 39.2279 29.2672 39.2638 29.356 39.2817H29.747C29.9958 39.2817 30.3512 39.2459 30.8133 39.1742C31.2931 39.1026 31.613 39.0668 31.7907 39.0668C31.9151 39.0668 32.0217 39.1026 32.0928 39.1921C32.1816 39.3712 32.2172 39.4786 32.2172 39.6218ZM37.513 39.9083C37.513 40.0873 37.4419 40.2485 37.2819 40.4096C37.122 40.5707 36.962 40.6424 36.7843 40.6424C36.6955 40.6424 36.6066 40.6066 36.5178 40.5528C36.4289 40.4812 36.2157 40.3201 35.878 40.0515C35.5404 39.7472 34.9895 39.2996 34.2786 38.7266V39.031C34.2786 39.1742 34.2964 39.2817 34.2964 39.3354V39.5144C34.2964 39.8188 34.2608 40.0515 34.2075 40.1769C34.1187 40.3917 33.941 40.4991 33.6744 40.4991C33.4611 40.4991 33.3012 40.4275 33.1768 40.2843C33.0524 40.141 32.9813 39.962 32.9813 39.7472C32.9813 39.6039 33.0169 39.407 33.1057 39.1563C33.1413 39.0668 33.1413 38.9057 33.1413 38.655C33.1413 37.6345 33.0702 36.8646 32.928 36.3812C32.8392 36.1306 32.8036 35.9336 32.8036 35.8083C32.8036 35.5935 32.8747 35.4144 33.0169 35.2533C33.2479 35.0026 33.5145 34.8236 33.8166 34.7341C34.0654 34.6445 34.3852 34.6087 34.7762 34.6087C35.4515 34.6087 36.109 34.8594 36.7488 35.3428C36.962 35.5039 37.0687 35.7188 37.0687 35.9873C37.0687 36.2201 36.9976 36.4528 36.8732 36.6856C36.7133 36.9721 36.4822 37.2048 36.1979 37.4017C35.9136 37.5808 35.647 37.7419 35.3626 37.921L36.6777 39.0131C36.8199 39.1205 37.0509 39.3175 37.3352 39.5502C37.4596 39.6576 37.513 39.7651 37.513 39.9083ZM35.8602 36.2738C35.8602 36.1485 35.6648 36.041 35.256 35.9694C34.9717 35.9157 34.7051 35.8978 34.4386 35.8978C34.2964 35.8978 34.2253 35.9336 34.2253 35.9873C34.2253 36.0769 34.2431 36.4349 34.2964 37.0795C34.9717 36.9721 35.4693 36.7393 35.8069 36.417C35.8425 36.3454 35.8602 36.3096 35.8602 36.2738ZM42.5599 39.0668C42.5599 39.3175 42.4711 39.5681 42.2756 39.783C42.0979 39.9799 41.8846 40.1231 41.6358 40.2127C41.5114 40.2664 41.3515 40.2843 41.1738 40.2843C40.9072 40.2843 40.6051 40.2306 40.2675 40.141C39.912 40.0336 39.5566 39.8904 39.219 39.6935C38.7214 39.407 38.4904 39.1563 38.4904 38.9057C38.4904 38.7983 38.5437 38.7087 38.6503 38.6371C38.7569 38.5655 38.8636 38.5297 38.988 38.5297C39.1657 38.5297 39.3967 38.6013 39.681 38.7445C40.0542 38.9236 40.2852 39.031 40.3386 39.0489C40.5518 39.1205 40.8006 39.1563 41.0494 39.1563C41.2626 39.1563 41.3693 39.1205 41.3693 39.031C41.3693 38.9952 41.3515 38.9594 41.316 38.9236C41.1205 38.6729 40.6407 38.4581 39.8587 38.2611C38.988 38.0463 38.437 37.8493 38.206 37.6882C37.8151 37.4017 37.6018 37.0974 37.6018 36.8109C37.6018 36.417 37.9395 36.041 38.6148 35.7188C39.0768 35.5039 39.5922 35.3249 40.1608 35.1996C40.6051 35.11 40.9961 35.0563 41.3515 35.0563C41.8491 35.0563 42.1334 35.1459 42.2045 35.3249C42.2578 35.4502 42.2756 35.5935 42.2756 35.7546C42.2756 36.1306 42.1334 36.3096 41.8313 36.3096C41.7425 36.3096 41.6358 36.2917 41.4937 36.238C41.3515 36.1843 41.2271 36.1664 41.1383 36.1664C40.7117 36.1664 40.0187 36.3633 39.0413 36.7751C39.059 36.793 39.1834 36.8288 39.4145 36.9004C39.6455 36.9721 39.9654 37.0795 40.4096 37.2048C41.3515 37.5271 41.9557 37.8852 42.2756 38.2969C42.4533 38.5476 42.5599 38.8162 42.5599 39.0668ZM47.4114 37.6882C47.4114 37.921 47.3048 38.1358 47.1093 38.3507C46.9139 38.5655 46.7006 38.655 46.4696 38.655C46.2563 38.655 46.0608 38.5476 45.9009 38.3507C45.741 38.1537 45.6521 37.9389 45.6521 37.724C45.6521 37.5092 45.7587 37.3301 45.9542 37.1869C46.1319 37.0616 46.3274 36.99 46.5407 36.99C46.7539 36.99 46.9494 37.0437 47.1271 37.169C47.3226 37.2943 47.4114 37.4734 47.4114 37.6882ZM54.6976 35.0026C54.6976 35.307 54.4666 35.4681 54.0223 35.5218C53.7735 35.5576 53.3825 35.6293 52.8494 35.7367C52.4762 35.8262 52.2452 35.862 52.1741 35.862C52.1386 35.862 52.1386 35.862 52.1386 35.8441H52.0852L52.0319 36.059C51.9964 36.1664 51.9608 36.3454 51.9075 36.5961C52.0675 36.614 52.2807 36.614 52.5117 36.614H53.0449C53.3825 36.614 53.6669 36.6319 53.8624 36.6498C53.969 36.6677 54.0756 36.7393 54.1822 36.8646C54.2889 36.99 54.3244 37.1153 54.3244 37.2227C54.3244 37.4197 54.1822 37.5629 53.8801 37.6524C53.4181 37.7956 52.9205 37.8673 52.4051 37.8673C52.2807 37.8673 52.1563 37.8672 52.0142 37.8493V38.0284C52.0142 38.2611 52.0319 38.5297 52.103 38.8341C52.1563 39.1026 52.2274 39.3533 52.2807 39.6218C52.2985 39.6755 52.2985 39.7293 52.2985 39.783C52.2985 39.9441 52.2452 40.0694 52.1386 40.1769C52.0319 40.2843 51.8898 40.3201 51.7298 40.3201C51.3744 40.3201 51.1611 40.1231 51.0901 39.7472C51.0012 39.1026 50.9479 38.5118 50.9123 37.9926C50.8235 37.9031 50.7346 37.8314 50.6636 37.7419C50.5747 37.6524 50.5392 37.545 50.5392 37.4017C50.5392 37.2943 50.5747 37.1869 50.6458 37.0795C50.6813 37.0258 50.7169 36.99 50.7524 36.9362V36.9183V36.8825V36.8467C50.7524 36.7214 50.7702 36.5603 50.788 36.3633C50.8235 36.1127 50.8235 35.9515 50.8235 35.8799C50.6813 35.7725 50.6102 35.6293 50.6102 35.4323C50.6102 35.2175 50.6813 35.0026 50.8413 34.8236C51.0012 34.6445 51.1789 34.5371 51.3922 34.5371C51.4455 34.5371 51.4988 34.5371 51.5521 34.555C51.7476 34.6087 51.9608 34.6266 52.1919 34.6266C52.7783 34.6266 53.3292 34.5192 53.809 34.3223C53.9157 34.2686 54.0223 34.2507 54.1111 34.2507C54.2711 34.2507 54.4133 34.3402 54.5377 34.5192C54.6443 34.6624 54.6976 34.8236 54.6976 35.0026ZM59.8334 39.9083C59.8334 40.0873 59.7624 40.2485 59.6024 40.4096C59.4425 40.5707 59.2825 40.6424 59.1048 40.6424C59.016 40.6424 58.9271 40.6066 58.8383 40.5528C58.7494 40.4812 58.5361 40.3201 58.1985 40.0515C57.8608 39.7472 57.3277 39.2996 56.5991 38.7266V39.5144C56.5991 39.8188 56.5636 40.0515 56.5102 40.1769C56.4214 40.3917 56.2437 40.4991 55.9771 40.4991C55.7639 40.4991 55.6039 40.4275 55.4795 40.2843C55.3551 40.141 55.284 39.962 55.284 39.7472C55.284 39.6039 55.3196 39.407 55.4084 39.1563C55.444 39.0668 55.444 38.9057 55.444 38.655C55.444 37.6345 55.3729 36.8646 55.2307 36.3812C55.1419 36.1306 55.1063 35.9336 55.1063 35.8083C55.1063 35.5935 55.1774 35.4144 55.3196 35.2533C55.5506 35.0026 55.8172 34.8236 56.1193 34.7341C56.3681 34.6445 56.688 34.6087 57.0789 34.6087C57.7542 34.6087 58.4118 34.8594 59.0515 35.3428C59.2648 35.5039 59.3714 35.7188 59.3714 35.9873C59.3714 36.2201 59.3003 36.4528 59.1759 36.6856C59.016 36.9721 58.7849 37.2048 58.5006 37.4017C58.2163 37.5808 57.9497 37.7419 57.6654 37.921L58.9804 39.0131C59.1226 39.1205 59.3536 39.3175 59.638 39.5502C59.7801 39.6576 59.8334 39.7651 59.8334 39.9083ZM58.1807 36.2738C58.1807 36.1485 57.9852 36.041 57.5765 35.9694C57.2922 35.9157 57.0256 35.8978 56.759 35.8978C56.6169 35.8978 56.5458 35.9336 56.5458 35.9873C56.5458 36.0769 56.5636 36.4349 56.6169 37.0795C57.2922 36.9721 57.7898 36.7393 58.1274 36.417C58.163 36.3454 58.1807 36.3096 58.1807 36.2738ZM62.0015 39.4965C62.0015 39.7114 61.8949 39.8725 61.6994 39.9978C61.5395 40.1052 61.344 40.159 61.113 40.159C60.953 40.159 60.7931 40.1231 60.6687 40.0336C60.5087 39.9262 60.4377 39.8009 60.4377 39.6397C60.4377 39.407 60.4554 39.031 60.491 38.5118C60.5798 37.2764 60.6154 36.4707 60.6154 36.1485C60.6154 36.1127 60.5976 35.7904 60.5798 35.1459V35.1279C60.5798 35.0026 60.6687 34.8773 60.8464 34.752C61.0063 34.6445 61.1663 34.5908 61.2907 34.5908C61.4684 34.5908 61.6105 34.6804 61.6994 34.8773C61.7705 35.0384 61.806 35.5397 61.806 36.3633C61.806 36.6498 61.806 37.0974 61.7883 37.6703C61.7705 38.2611 61.7705 38.6908 61.7705 38.9773C61.7705 38.9952 61.806 39.0489 61.8949 39.1563C61.9482 39.2638 62.0015 39.3712 62.0015 39.4965ZM67.2617 39.6218C67.2617 39.8546 67.1551 39.9978 66.9419 40.0694C65.7334 40.4991 64.6849 40.7319 63.7786 40.7498H63.7253C63.5476 40.7498 63.3877 40.6961 63.2633 40.5886C63.1389 40.4812 63.0678 40.338 63.0678 40.159C63.0678 39.9262 63.0855 39.586 63.1211 39.1384C63.1566 38.6908 63.1744 38.3507 63.1744 38.1179C63.1744 37.9389 63.1744 37.7598 63.1566 37.5629C63.1744 37.5629 63.1922 37.545 63.2099 37.5271C62.7301 37.4376 62.4991 37.2585 62.4991 36.9721C62.4991 36.8109 62.5702 36.6498 62.7301 36.4886C62.8545 36.3633 63.0145 36.2559 63.1922 36.1843H63.1566V36.041V35.8978C62.7657 35.7546 62.5702 35.5397 62.5702 35.2533C62.5702 35.0742 62.6768 34.8057 62.8723 34.4476C63.05 34.1432 63.2455 34 63.4587 34C63.5654 34 63.7075 34.0358 63.8675 34.1253C64.0274 34.2148 64.1518 34.2507 64.2229 34.2507C64.3295 34.2507 64.4717 34.2507 64.6672 34.2328C64.8627 34.2148 65.0226 34.2148 65.1292 34.2148C65.4846 34.2148 65.8401 34.2328 66.1777 34.2507C66.5687 34.2686 66.7642 34.4655 66.7642 34.8236C66.7642 35.0205 66.6931 35.1638 66.5687 35.2712C66.4443 35.3786 66.2843 35.4323 66.0889 35.4323H65.6268C65.4313 35.4323 65.2892 35.4144 65.1825 35.4144C65.0404 35.4144 64.7383 35.4502 64.3117 35.5218V36.0948C64.987 36.1306 65.378 36.1664 65.4669 36.1664C65.8756 36.2201 66.2488 36.3275 66.5864 36.4886C66.8352 36.5961 66.9419 36.7572 66.9419 36.9541C66.9419 37.1153 66.8708 37.2406 66.7108 37.3122C66.5864 37.3838 66.4443 37.4197 66.2843 37.4197C66.3377 37.4197 66.1422 37.4017 65.7157 37.3659C65.2892 37.3301 64.8271 37.3122 64.294 37.3122C64.2407 37.8672 64.2229 38.3686 64.2229 38.7983C64.2229 38.9415 64.2229 39.0668 64.2407 39.1563C64.2584 39.2279 64.3117 39.2638 64.4006 39.2817H64.7916C65.0404 39.2817 65.3958 39.2459 65.8578 39.1742C66.3377 39.1026 66.6575 39.0668 66.8352 39.0668C66.9596 39.0668 67.0663 39.1026 67.1374 39.1921C67.2262 39.3712 67.2617 39.4786 67.2617 39.6218ZM72.3443 39.0668C72.3443 39.3175 72.2554 39.5681 72.0599 39.783C71.8822 39.9799 71.669 40.1231 71.4202 40.2127C71.2958 40.2664 71.1358 40.2843 70.9581 40.2843C70.6916 40.2843 70.3895 40.2306 70.0518 40.141C69.6964 40.0336 69.341 39.8904 69.0033 39.6935C68.5057 39.407 68.2747 39.1563 68.2747 38.9057C68.2747 38.7983 68.328 38.7087 68.4346 38.6371C68.5413 38.5655 68.6479 38.5297 68.7723 38.5297C68.95 38.5297 69.181 38.6013 69.4654 38.7445C69.8386 38.9236 70.0696 39.031 70.1229 39.0489C70.3361 39.1205 70.5849 39.1563 70.8337 39.1563C71.047 39.1563 71.1536 39.1205 71.1536 39.031C71.1536 38.9952 71.1358 38.9594 71.1003 38.9236C70.9048 38.6729 70.425 38.4581 69.6431 38.2611C68.7723 38.0463 68.2214 37.8493 67.9904 37.6882C67.5994 37.4017 67.3862 37.0974 67.3862 36.8109C67.3862 36.417 67.7238 36.041 68.3991 35.7188C68.8611 35.5039 69.3765 35.3249 69.9452 35.1996C70.3895 35.11 70.7804 35.0563 71.1358 35.0563C71.6334 35.0563 71.9178 35.1459 71.9889 35.3249C72.0422 35.4502 72.0599 35.5935 72.0599 35.7546C72.0599 36.1306 71.9178 36.3096 71.6157 36.3096C71.5268 36.3096 71.4202 36.2917 71.278 36.238C71.1358 36.1843 71.0115 36.1664 70.9226 36.1664C70.4961 36.1664 69.803 36.3633 68.8256 36.7751C68.8434 36.793 68.9678 36.8288 69.1988 36.9004C69.4298 36.9721 69.7497 37.0795 70.194 37.2048C71.1358 37.5271 71.7401 37.8852 72.0599 38.2969C72.2554 38.5476 72.3443 38.8162 72.3443 39.0668ZM77.1958 37.6882C77.1958 37.921 77.0892 38.1358 76.8937 38.3507C76.6982 38.5655 76.4849 38.655 76.2539 38.655C76.0407 38.655 75.8452 38.5476 75.6852 38.3507C75.5253 38.1537 75.4364 37.9389 75.4364 37.724C75.4364 37.5092 75.5431 37.3301 75.7386 37.1869C75.9163 37.0616 76.1117 36.99 76.325 36.99C76.5383 36.99 76.7337 37.0437 76.9115 37.169C77.1069 37.2943 77.1958 37.4734 77.1958 37.6882ZM84.9973 39.0668C84.9973 39.3175 84.9084 39.5681 84.713 39.783C84.5352 39.9799 84.322 40.1231 84.0732 40.2127C83.9488 40.2664 83.7889 40.2843 83.6111 40.2843C83.3446 40.2843 83.0425 40.2306 82.7048 40.141C82.3494 40.0336 81.994 39.8904 81.6563 39.6935C81.1587 39.407 80.9277 39.1563 80.9277 38.9057C80.9277 38.7983 80.981 38.7087 81.0877 38.6371C81.1943 38.5655 81.3009 38.5297 81.4253 38.5297C81.603 38.5297 81.834 38.6013 82.1184 38.7445C82.4916 38.9236 82.7226 39.031 82.7759 39.0489C82.9892 39.1205 83.238 39.1563 83.4868 39.1563C83.7 39.1563 83.8066 39.1205 83.8066 39.031C83.8066 38.9952 83.7889 38.9594 83.7533 38.9236C83.5578 38.6729 83.078 38.4581 82.2961 38.2611C81.4253 38.0463 80.8744 37.8493 80.6611 37.6882C80.2702 37.4017 80.0569 37.0974 80.0569 36.8109C80.0569 36.417 80.3946 36.041 81.0699 35.7188C81.5319 35.5039 82.0473 35.3249 82.616 35.1996C83.0602 35.11 83.4512 35.0563 83.8066 35.0563C84.3042 35.0563 84.5886 35.1459 84.6596 35.3249C84.713 35.4502 84.7307 35.5935 84.7307 35.7546C84.7307 36.1306 84.5886 36.3096 84.2865 36.3096C84.1976 36.3096 84.091 36.2917 83.9488 36.238C83.8066 36.1843 83.6822 36.1664 83.5934 36.1664C83.1669 36.1664 82.4738 36.3633 81.4964 36.7751C81.5142 36.793 81.6386 36.8288 81.8696 36.9004C82.1006 36.9721 82.4205 37.0795 82.8648 37.2048C83.8066 37.5271 84.4109 37.8852 84.7307 38.2969C84.9084 38.5476 84.9973 38.8162 84.9973 39.0668ZM89.6178 40.3022C89.6178 40.4454 89.5645 40.5528 89.4401 40.6424C89.3157 40.714 89.1735 40.7677 89.0136 40.7677C88.6759 40.7677 88.4804 40.6424 88.4449 40.3917C88.4271 40.2485 88.4093 40.0336 88.3738 39.7472C88.2849 39.0489 88.2494 38.5655 88.2494 38.279V38.0821C87.9828 38.1537 87.5208 38.2611 86.881 38.3686C86.881 38.4223 86.9166 38.6371 86.9877 39.031C87.0232 39.2996 87.041 39.5144 87.041 39.6755C87.041 40.0157 86.881 40.1948 86.5434 40.1948C86.4012 40.1948 86.259 40.159 86.1524 40.0694C86.028 39.9799 85.9392 39.8725 85.9214 39.7293C85.8858 39.4965 85.8148 38.7087 85.6904 37.3301C85.6726 37.1869 85.6193 36.7751 85.5304 36.1127C85.4416 35.5576 85.406 35.1817 85.406 34.9847C85.406 34.8236 85.4771 34.6803 85.6015 34.5729C85.7259 34.4655 85.8858 34.4118 86.0636 34.4118C86.3834 34.4118 86.5611 34.555 86.6145 34.8415C86.7566 35.486 86.8277 36.0948 86.8277 36.7035V37.0616C87.1298 37.0079 87.5741 36.9541 88.1783 36.8825V36.7572C88.1783 36.5424 88.1605 36.238 88.0895 35.8262C88.0184 35.4144 87.9828 35.11 87.9828 34.9131V34.8773C87.9828 34.6804 88.0361 34.5192 88.1605 34.3939C88.2672 34.2686 88.4271 34.2148 88.6404 34.2148C88.8181 34.2148 88.978 34.2686 89.1024 34.376C89.2268 34.4834 89.2801 34.6266 89.2801 34.8236V35.0563C89.2801 35.486 89.3334 36.1485 89.4578 37.0079C89.5645 37.9031 89.6178 38.9952 89.6178 40.3022ZM94.4693 40.338C94.4693 40.4991 94.416 40.6424 94.3093 40.7319C94.2027 40.8393 94.0605 40.8751 93.9006 40.8751C93.5452 40.8751 93.3142 40.6961 93.2431 40.338C93.2075 40.159 93.172 39.9262 93.1542 39.6218C93.1187 39.2817 93.1009 39.031 93.0831 38.8878H92.2479C92.0524 38.8878 91.928 39.0131 91.8569 39.2459C91.8214 39.4428 91.8036 39.6397 91.7681 39.8546C91.7148 40.1231 91.5904 40.4275 91.3949 40.7498C91.2349 41.0362 90.9861 41.1795 90.684 41.1795C90.5063 41.1795 90.3464 41.1258 90.2398 41.0004C90.1331 40.8751 90.0798 40.7319 90.0798 40.5349C90.0798 40.3559 90.1509 40.1052 90.2753 39.7651C90.3819 39.5144 90.4886 39.2459 90.5952 38.9952C90.4708 38.8341 90.3819 38.7445 90.3464 38.6908C90.3108 38.6371 90.2931 38.5655 90.2931 38.4581C90.2931 38.279 90.3819 38.1179 90.5419 37.9747C90.684 37.8493 90.8617 37.7598 91.0395 37.724C91.0572 37.724 91.075 37.6882 91.0928 37.6345C91.2527 37.2406 91.3771 36.9183 91.466 36.6319C91.5904 36.2201 91.8036 35.6293 92.088 34.8236C92.2301 34.4834 92.4434 34.3223 92.7277 34.3223C92.8876 34.3223 93.0476 34.376 93.1898 34.5013C93.3142 34.6087 93.403 34.752 93.4741 34.9131C93.6874 35.4681 93.8651 36.2917 93.9895 37.3838C94.025 37.7598 94.1139 38.3328 94.2205 39.0847C94.2738 39.3354 94.3449 39.6935 94.4515 40.141C94.4515 40.2127 94.4693 40.2843 94.4693 40.338ZM93.0298 37.724C93.0298 37.724 93.012 37.5987 92.9943 37.3301C92.9765 37.1511 92.9587 36.8825 92.9232 36.5245C92.9054 36.3991 92.8521 36.3275 92.7633 36.3275C92.6744 36.3275 92.6211 36.3812 92.6033 36.5066C92.4967 36.8825 92.4078 37.2764 92.3012 37.6703C92.3012 37.7777 92.4078 37.8135 92.6033 37.8135H92.7455C92.781 37.8135 92.8166 37.8314 92.8343 37.8314C92.9587 37.8493 93.0298 37.8135 93.0298 37.724ZM99.7473 39.9799C99.7473 40.1231 99.694 40.2485 99.6051 40.3738C99.5163 40.4812 99.3919 40.5528 99.2497 40.5528C99.1608 40.5528 99.072 40.517 98.9476 40.4633C98.7166 40.3201 98.5388 40.2127 98.3789 40.141C98.1479 40.0336 97.8102 39.9083 97.366 39.783C96.8862 39.6218 96.5307 39.5144 96.3352 39.4249C96.3175 39.6218 96.2819 39.8009 96.2642 39.9978C96.2286 40.2127 96.1575 40.3917 96.0509 40.5528C95.9087 40.7856 95.7133 40.893 95.4645 40.893C95.3223 40.893 95.1979 40.8393 95.109 40.7498C95.0202 40.6603 94.9669 40.5349 94.9669 40.3738C94.9669 40.3022 94.9669 40.2306 94.9846 40.159C95.1801 39.3891 95.269 38.7266 95.269 38.1358C95.269 37.6166 95.1446 36.6677 94.8958 35.2891C94.878 35.2354 94.878 35.1817 94.878 35.1459C94.878 34.9489 94.9491 34.8057 95.0913 34.6803C95.2334 34.555 95.3934 34.5013 95.5889 34.5013C95.9621 34.5013 96.1575 34.6983 96.1753 35.11V35.307C96.1753 35.5576 96.1931 35.8978 96.2464 36.3096C96.3175 36.8109 96.353 37.1511 96.3708 37.3122C96.7084 37.1153 97.1882 36.6856 97.8458 36.0231C97.9524 35.9157 98.1124 35.7546 98.3434 35.5397C98.45 35.4681 98.5389 35.4323 98.6633 35.4323C98.8232 35.4323 98.9654 35.5039 99.1075 35.6114C99.2319 35.7367 99.303 35.8799 99.303 36.041C99.303 36.1485 99.2675 36.2559 99.2141 36.3633C99.0364 36.6498 98.6988 36.9721 98.219 37.348C97.5792 37.8135 97.206 38.1179 97.0816 38.2432C97.2593 38.3686 97.6858 38.5476 98.3611 38.7983C98.8765 38.9952 99.2852 39.2459 99.5696 39.5502C99.6762 39.6397 99.7473 39.8009 99.7473 39.9799ZM104.581 39.6218C104.581 39.8546 104.474 39.9978 104.261 40.0694C103.053 40.4991 102.004 40.7319 101.098 40.7498H101.045C100.867 40.7498 100.707 40.6961 100.583 40.5886C100.458 40.4812 100.387 40.338 100.387 40.159C100.387 39.9262 100.405 39.586 100.44 39.1384C100.476 38.6908 100.494 38.3507 100.494 38.1179C100.494 37.9389 100.494 37.7598 100.476 37.5629C100.494 37.5629 100.511 37.545 100.529 37.5271C100.049 37.4376 99.8184 37.2585 99.8184 36.9721C99.8184 36.8109 99.8895 36.6498 100.049 36.4886C100.174 36.3633 100.334 36.2559 100.511 36.1843H100.476V36.041V35.8978C100.085 35.7546 99.8895 35.5397 99.8895 35.2533C99.8895 35.0742 99.9961 34.8057 100.192 34.4476C100.369 34.1432 100.565 34 100.778 34C100.885 34 101.027 34.0358 101.187 34.1253C101.347 34.2148 101.471 34.2507 101.542 34.2507C101.649 34.2507 101.791 34.2507 101.986 34.2328C102.182 34.2148 102.342 34.2148 102.448 34.2148C102.804 34.2148 103.159 34.2328 103.497 34.2507C103.888 34.2686 104.083 34.4655 104.083 34.8236C104.083 35.0205 104.012 35.1638 103.888 35.2712C103.764 35.3786 103.604 35.4323 103.408 35.4323H102.946C102.751 35.4323 102.608 35.4144 102.502 35.4144C102.36 35.4144 102.058 35.4502 101.631 35.5218V36.0948C102.306 36.1306 102.697 36.1664 102.786 36.1664C103.195 36.2201 103.568 36.3275 103.906 36.4886C104.155 36.5961 104.261 36.7572 104.261 36.9541C104.261 37.1153 104.19 37.2406 104.03 37.3122C103.906 37.3838 103.764 37.4197 103.604 37.4197C103.657 37.4197 103.461 37.4017 103.035 37.3659C102.608 37.3301 102.146 37.3122 101.613 37.3122C101.56 37.8672 101.542 38.3686 101.542 38.7983C101.542 38.9415 101.542 39.0668 101.56 39.1563C101.578 39.2279 101.631 39.2638 101.72 39.2817H102.111C102.36 39.2817 102.715 39.2459 103.177 39.1742C103.657 39.1026 103.977 39.0668 104.155 39.0668C104.279 39.0668 104.386 39.1026 104.457 39.1921C104.545 39.3712 104.581 39.4786 104.581 39.6218ZM109.664 39.0668C109.664 39.3175 109.575 39.5681 109.379 39.783C109.201 39.9799 108.988 40.1231 108.739 40.2127C108.615 40.2664 108.455 40.2843 108.277 40.2843C108.011 40.2843 107.709 40.2306 107.371 40.141C107.016 40.0336 106.66 39.8904 106.323 39.6935C105.825 39.407 105.594 39.1563 105.594 38.9057C105.594 38.7983 105.647 38.7087 105.754 38.6371C105.861 38.5655 105.967 38.5297 106.092 38.5297C106.269 38.5297 106.5 38.6013 106.785 38.7445C107.158 38.9236 107.389 39.031 107.46 39.0489C107.673 39.1205 107.922 39.1563 108.171 39.1563C108.384 39.1563 108.491 39.1205 108.491 39.031C108.491 38.9952 108.473 38.9594 108.437 38.9236C108.242 38.6729 107.762 38.4581 106.98 38.2611C106.109 38.0463 105.558 37.8493 105.327 37.6882C104.936 37.4017 104.723 37.0974 104.723 36.8109C104.723 36.417 105.061 36.041 105.736 35.7188C106.198 35.5039 106.714 35.3249 107.282 35.1996C107.727 35.11 108.117 35.0563 108.473 35.0563C108.97 35.0563 109.255 35.1459 109.326 35.3249C109.379 35.4502 109.397 35.5935 109.397 35.7546C109.397 36.1306 109.255 36.3096 108.953 36.3096C108.864 36.3096 108.757 36.2917 108.615 36.238C108.473 36.1843 108.348 36.1664 108.26 36.1664C107.833 36.1664 107.14 36.3633 106.163 36.7751C106.18 36.793 106.305 36.8288 106.536 36.9004C106.767 36.9721 107.087 37.0795 107.531 37.2048C108.473 37.5271 109.077 37.8852 109.397 38.2969C109.575 38.5476 109.664 38.8162 109.664 39.0668Z" fill="#030404"/>
<path fill-rule="evenodd" clip-rule="evenodd" d="M108.996 12.2644C109.422 12.1928 109.724 11.781 109.653 11.3513L108.818 5.7474C108.747 5.31771 109.049 4.90592 109.476 4.85221L113.705 4.20766C114.132 4.13605 114.523 4.44042 114.594 4.87011L117.242 23.3291C117.313 23.7588 117.011 24.1705 116.584 24.2243L112.355 24.8688C111.928 24.9404 111.519 24.6361 111.466 24.2064L110.577 18.119C110.506 17.6893 110.115 17.385 109.689 17.4566L104.162 18.3518C103.736 18.4234 103.433 18.8352 103.505 19.2649L104.393 25.3522C104.464 25.7819 104.162 26.1937 103.736 26.2474L99.6838 26.874C99.2573 26.9457 98.8485 26.6413 98.7952 26.2116L96.1296 7.75264C96.0763 7.32295 96.3606 6.91116 96.7871 6.85745L100.839 6.23081C101.265 6.15919 101.674 6.46356 101.727 6.89325L102.563 12.4972C102.634 12.9269 103.025 13.2312 103.451 13.1596L108.996 12.2644ZM88.3992 16.4719C88.2748 16.0601 88.257 15.9705 88.1148 15.9705C87.9727 15.9526 87.9549 16.0422 87.7594 16.4181L86.16 19.6229C85.9645 20.0168 86.16 20.357 86.5865 20.3928L88.9145 20.5898C89.341 20.6256 89.5898 20.3212 89.4654 19.9094L88.3992 16.4719ZM89.1811 6.1771C89.3588 6.195 89.3766 6.40985 89.5187 6.80373L96.8404 27.8767C96.9826 28.2885 96.7516 28.5928 96.3251 28.557L92.8064 28.2526C92.3799 28.2168 91.9001 27.8409 91.7757 27.4291L90.976 25.1016C90.8338 24.6898 90.3717 24.3317 89.9452 24.278L85.0404 23.8483C84.6139 23.8125 84.0808 24.081 83.8498 24.457L82.6236 26.4623C82.3925 26.8382 81.8594 27.1068 81.4329 27.071L77.8787 26.7487C77.4522 26.7129 77.2745 26.3727 77.4877 25.9968L88.7013 6.75002C88.9145 6.35614 89.0034 6.15919 89.1811 6.1771ZM66.4874 0.573167C66.3275 0.17928 66.523 -0.0713749 66.9495 0.0181448L71.8721 1.07448C72.2986 1.164 72.7784 1.57579 72.9383 1.96967L75.0886 7.30504C75.2486 7.69893 75.6217 7.78845 75.9239 7.46618L79.8335 3.4557C80.1356 3.15133 80.7221 2.97229 81.1486 3.06181L86.0712 4.11814C86.4977 4.20766 86.5865 4.52994 86.2844 4.8343L77.5943 13.4998C77.2922 13.8042 76.9724 14.4129 76.8835 14.8426L75.1775 23.8304C75.0886 24.2601 74.6799 24.5286 74.2534 24.4391L70.4148 23.6155C69.9883 23.526 69.7218 23.0963 69.7928 22.6845L71.4989 13.6967C71.5699 13.2671 71.4989 12.5867 71.3389 12.1928L66.4874 0.573167ZM58.6859 11.5662C56.0736 11.8885 54.1898 14.4129 54.4564 16.8836C54.8118 19.9631 57.2109 21.9505 59.8055 21.6103C62.4178 21.288 64.3016 18.7636 63.9639 15.6841C63.6974 13.2133 61.2983 11.2439 58.6859 11.5662ZM58.1706 7.07229C63.0221 6.46356 67.9091 9.68627 68.5133 15.0933C69.1708 20.8762 65.7233 25.4417 60.3209 26.1221C54.9184 26.8024 50.5468 23.2216 49.8892 17.4387C49.3028 12.0317 53.3368 7.68103 58.1706 7.07229ZM26.9823 26.6055C27.0534 27.0173 26.769 27.3395 26.3603 27.3395L22.2019 27.2142C21.7931 27.1963 21.4022 26.8561 21.3489 26.4443L20.1938 18.6203C20.1404 18.2085 20.0694 17.8684 20.0516 17.8684C20.0338 17.8684 19.8383 18.1548 19.6251 18.5129L13.8139 28.2885C13.6007 28.6465 13.263 28.6286 13.0853 28.2526L7.91393 18.1906C7.71845 17.8147 7.55851 17.5103 7.54074 17.5103C7.52297 17.5103 7.43411 17.8505 7.34526 18.2443L5.63923 25.9968C5.55038 26.4085 5.14164 26.7308 4.71514 26.7308L0.592246 26.6055C0.183511 26.5876 -0.0830553 26.2474 0.0235712 25.8535L5.71032 3.4557C5.81694 3.04391 6.04797 3.02601 6.22568 3.40199L13.3874 18.7636C13.5651 19.1395 13.885 19.1574 14.0805 18.7994L22.4862 4.10024C22.6995 3.74216 22.9305 3.77797 23.0016 4.18976L26.9823 26.6055ZM37.2362 9.43561C34.1974 9.8295 32.0115 12.7478 32.3314 15.6125C32.7401 19.1754 35.5124 21.485 38.5513 21.109C41.5901 20.733 43.776 17.7967 43.3672 14.2339C43.0474 11.3513 40.2573 9.05963 37.2362 9.43561ZM36.632 4.22557C42.2654 3.50941 47.9344 7.25133 48.6452 13.5356C49.4094 20.2496 45.4109 25.5492 39.1377 26.3548C32.8645 27.1426 27.7998 22.9889 27.0356 16.2749C26.3248 9.99063 31.0163 4.92382 36.632 4.22557Z" fill="#030404"/>
</svg>
