<svg width="103" height="27" viewBox="0 0 103 27" fill="none" xmlns="http://www.w3.org/2000/svg">
<path d="M57.4278 15.2122L53.1981 4.58315L48.993 15.1416C50.0871 15.1072 51.1938 15.0873 52.325 15.0873C54.0712 15.0873 55.7703 15.1299 57.4278 15.2122ZM92.5309 25.9889C83.4667 22.0494 73.273 19.1318 61.2951 18.147L64.9424 27H62.1193L58.5191 17.956C56.5076 17.8446 54.4444 17.7822 52.3296 17.7822C50.8297 17.7822 49.3571 17.8129 47.9079 17.8718L44.2734 27H41.4485L45.1465 18.0184C32.4413 18.8512 21.6209 21.8602 12.1165 25.9862V25.4285C18.46 21.89 24.7329 19.2486 31.5048 17.5233V12.0892L23.8779 0.387455H26.7118L32.7637 10.1104L38.8183 0.387455H41.6486L34.0236 12.0892L34.0217 16.9276C37.8972 16.0867 41.9484 15.5309 46.2804 15.2675L52.566 2.28882e-05H53.8258L60.1612 15.3888C64.4134 15.7282 68.3994 16.3537 72.2206 17.2689V2.42329H65.9893V0.387455H81.0294V2.42329H74.8009V17.9378C80.9452 19.6532 86.71 22.148 92.5309 25.434V25.9889ZM102.608 0.387455H87.5695V2.42329H93.7998V20.7721H96.3783V2.42329H102.608V0.387455ZM16.2773 20.7721L13.6987 20.7748V10.716H2.57853V20.7721H0V0.387455H2.57853V8.68198H13.6987V0.387455H16.2773V20.7721Z" fill="#030404"/>
</svg>
