<svg width="174" height="24" viewBox="0 0 174 24" fill="none" xmlns="http://www.w3.org/2000/svg">
<path d="M168.576 17.0519C168.576 17.1779 168.653 17.2567 168.776 17.2567C168.93 17.2567 171.812 16.6108 171.812 14.4527C171.812 13.1295 170.764 12.3104 168.561 11.885L165.941 11.3967C162.118 10.6721 159.391 8.46673 159.391 4.82788C159.391 3.83547 159.606 2.65402 160.331 1.55134C160.439 1.39381 160.5 1.28355 160.5 1.18903C160.5 1.07876 160.408 1 160.3 1C160.269 1 160.223 1.01575 160.223 1.01575C157.757 1.94516 156 4.37105 156 7.34829C156 10.9399 158.558 13.4288 163.182 14.2952L165.586 14.752C166.095 14.8465 166.819 14.9253 167.328 15.1458C168.083 15.4924 168.576 16.2485 168.576 17.0519Z" fill="black"/>
<path d="M172.968 19.6231C171.597 20.3477 169.67 20.7415 167.805 20.7415C163.151 20.7415 159.36 19.6073 159.36 16.5356C159.36 16.189 159.314 16.0945 159.159 16.063C159.098 16.0473 158.851 16 158.574 16C157.14 16 156 17.1657 156 18.5677C156 21.3559 160.562 23.577 164.785 23.577C167.775 23.577 171.026 22.4586 172.984 20.1114C173.184 19.8751 173.2 19.8279 173.2 19.7806C173.2 19.6861 173.122 19.6073 173.03 19.6073C172.999 19.6073 172.999 19.6073 172.968 19.6231Z" fill="black"/>
<path d="M164.601 4.88272C166.543 4.92998 167.606 5.41831 168.731 6.2532C169.44 6.78879 169.887 6.99357 170.488 6.99357C171.829 6.99357 173.078 5.87514 173.078 4.47316V4.33138C173.078 4.17386 173.047 4.07934 172.831 4.01633C172.646 3.95332 172.338 3.7958 171.814 3.40198C170.72 2.58285 169.533 2 167.745 2C165.402 2 164 2.99241 164 4.47316V4.59918C164 4.77246 164.062 4.88272 164.293 4.88272C164.339 4.88272 164.447 4.88272 164.524 4.88272H164.601Z" fill="black"/>
<path d="M107.391 0.267794C107.391 0 106.62 0 106.589 0C105.156 0 104 1.18144 104 2.66219V20.9824C104 22.4317 105.156 23.6289 106.589 23.6289C108.022 23.6289 109.194 22.4474 109.194 20.9824V20.8879C109.194 20.8249 109.132 20.7147 109.055 20.6989C108.1 20.4626 107.391 19.5647 107.391 18.525V0.267794Z" fill="black"/>
<path d="M14.7024 1C12.5909 1 10.9419 1.83489 9.44694 3.58342C9.21577 3.85122 9 4.13476 9 4.29229C9 4.40256 9.07706 4.49707 9.18494 4.49707C9.27741 4.49707 9.40071 4.44982 9.44694 4.41831C10.1713 4.11901 11.1885 4.00874 11.9128 4.00874C13.8239 4.00874 15.5808 4.81213 16.7829 6.04083C16.9371 6.19835 16.9987 6.22986 17.0449 6.22986H19.6341C19.742 6.22986 19.8499 6.13534 19.8499 6.00932V3.41015C19.8499 3.34714 19.7882 3.28412 19.7266 3.22111C18.3241 1.80338 16.7521 1 14.7024 1Z" fill="black"/>
<path d="M13.5892 9.36231C13.5892 9.09452 13.4967 9 13.2655 9C12.6491 9 11 9.77188 11 11.5677C11 13.0799 12.1867 14.3086 13.6046 14.3086H15.5465C15.6544 14.3086 15.7468 14.4031 15.7468 14.5134V15.238C15.7468 15.3483 15.8393 15.4428 15.9472 15.4428C16.3479 15.4428 19.0758 14.4504 19.0758 13.71V11.8355C19.0758 11.7094 18.9679 11.6307 18.8754 11.6307H16.1475C14.5601 11.6307 13.5892 10.1814 13.5892 9.36231Z" fill="black"/>
<path d="M2.71247 8.83604C2.71247 7.27654 2.89741 6.70945 3.03612 6.07934C3.28271 4.96091 3.57553 4.36231 3.60635 4.22054C3.60635 4.09452 3.5293 4 3.406 4C3.35977 4 3.29812 4.03151 3.03612 4.2993C1.23294 6.14235 0 9.00932 0 12.1598C0 18.5711 5.13212 23.7852 11.3739 23.7852C14.4254 23.7852 17.1995 22.5723 19.2647 20.5245C19.2801 20.5087 19.311 20.4772 19.311 20.3984C19.311 20.2882 19.2185 20.1937 19.1414 20.1937C18.9257 20.1937 17.1379 21.0443 14.5795 21.0443C8.07577 21.0285 2.71247 15.5466 2.71247 8.83604Z" fill="black"/>
<path d="M35 2.64643C35 1.18144 36.1559 0 37.5892 0C37.62 0 38.3906 0 38.3906 0.267794V18.3203C38.3906 19.5647 39.3769 20.5729 40.5945 20.5729H51.8759C51.9992 20.5729 52.0917 20.6516 52.0917 20.7934C52.0917 22.2742 50.9204 23.4556 49.4871 23.4556H37.6046C36.1713 23.4556 35.0154 22.2427 35.0154 20.7934C35 14.7444 35 8.69543 35 2.64643Z" fill="black"/>
<path d="M52.5091 2.22054C52.5091 3.70128 51.3378 4.88272 49.9045 4.88272H43.2158C43.0925 4.88272 43 4.78821 43 4.66219V2.22054C43 2.09452 43.0925 2 43.2158 2H52.3087C52.4166 2 52.5091 2.09452 52.5091 2.22054Z" fill="black"/>
<path d="M51.9542 11.2205C51.9542 12.7013 50.7829 13.8827 49.3496 13.8827H43.2158C43.0925 13.8827 43 13.7882 43 13.6622V11.2205C43 11.0945 43.0925 11 43.2158 11H51.7539C51.8463 11 51.9542 11.0788 51.9542 11.2205Z" fill="black"/>
<path d="M76 12.6715L81.1475 21.43C81.8102 22.5641 82.9815 23.336 84.3994 23.336C86.1101 23.336 87.5126 22.2018 88.0058 20.6423C88.0058 20.6266 88.0058 20.6108 88.0058 20.5951C88.0058 20.4848 87.9133 20.3903 87.8054 20.3903C87.7438 20.3903 87.528 20.406 87.3585 20.406C86.1101 20.406 84.8464 19.6657 84.1837 18.5472L76.4007 5.11027C76.3545 5.04726 76.3082 5 76.2158 5C76.1695 5 76 5.01575 76 5.22054V12.6715Z" fill="black"/>
<path d="M86.3906 0.267794C86.3906 0 85.62 0 85.5892 0C84.1559 0 83 1.18144 83 2.66219V8.66392L86.0053 13.7048C86.0361 13.7678 86.1132 13.815 86.1902 13.815C86.2981 13.815 86.3906 13.7205 86.3906 13.5945V0.267794Z" fill="black"/>
<path d="M71.3906 0.267794C71.3906 0 70.62 0 70.5892 0C69.1559 0 68 1.18144 68 2.66219V20.9509C68 22.4002 69.1559 23.5974 70.5892 23.5974C72.0225 23.5974 73.1938 22.4159 73.1938 20.9509V20.8564C73.1938 20.7934 73.1321 20.6831 73.0551 20.6674C72.0995 20.4311 71.3906 19.5332 71.3906 18.4935V0.267794Z" fill="black"/>
<path d="M137.694 2.67794V13.6575C137.694 14.3664 137.632 14.9492 137.539 15.3115C137.354 16.1464 137 16.5875 137 16.745C137 16.871 137.108 16.9655 137.216 16.9498C139.404 16.5717 141.069 14.5711 141.069 12.2713V0.267794C141.069 0 140.298 0 140.267 0C138.849 0 137.694 1.1972 137.694 2.67794Z" fill="black"/>
<path d="M127.391 0.267794C127.391 0 126.62 0 126.589 0C125.156 0 124 1.18144 124 2.66219V13.7205C124 19.2024 128.346 23.6446 133.709 23.6446C137.763 23.6446 140.259 21.1242 140.845 20.4626C141.169 20.1161 141.215 20.053 141.215 19.9585C141.215 19.8483 141.122 19.738 141.015 19.738C140.984 19.738 140.953 19.7537 140.783 19.8483C139.597 20.4941 138.102 20.8722 136.591 20.8722C131.521 20.8722 127.391 16.7135 127.391 11.5151V0.267794Z" fill="black"/>
</svg>
